<svg width="32" height="32" viewBox="0 0 32 32" fill="none" xmlns="http://www.w3.org/2000/svg">
<path d="M14.6364 19.3586L14.1607 22.6364H1.07511L1 22.1069C1.43396 22.0228 1.78447 21.6236 2.05152 20.9092C2.31857 20.1948 2.4521 19.2073 2.4521 17.9466V13.6897C2.4521 12.4122 2.31857 11.4205 2.05152 10.7145C1.78447 10.0085 1.43396 9.60513 1 9.50427L1.07511 9H13.9103L14.386 12.2778L13.8853 12.3534C13.7851 12.0677 13.66 11.7777 13.5097 11.4835C13.3595 11.1894 13.1133 10.9162 12.7712 10.6641C12.429 10.412 11.9617 10.2061 11.3691 10.0464C10.7766 9.88668 10.0047 9.80683 9.0533 9.80683H6.87515V15.5261C7.5094 15.5261 8.04351 15.4841 8.47747 15.4001C8.91143 15.316 9.27028 15.2068 9.55402 15.0723C9.83777 14.9378 10.0506 14.7781 10.1924 14.5932C10.3343 14.4083 10.4303 14.2066 10.4804 13.9881L11.0061 14.0637V17.8206L10.4804 17.8962C10.4303 17.6777 10.3343 17.476 10.1924 17.2911C10.0506 17.1062 9.83777 16.9423 9.55402 16.7994C9.27028 16.6565 8.91143 16.5473 8.47747 16.4716C8.04351 16.396 7.5094 16.3582 6.87515 16.3582V21.8001H9.30366C10.255 21.8001 11.0228 21.7203 11.607 21.5606C12.1912 21.4009 12.6543 21.1992 12.9965 20.9555C13.3387 20.7117 13.589 20.4386 13.7476 20.136C13.9061 19.8334 14.0272 19.5477 14.1106 19.2788L14.6364 19.3544V19.3586Z" fill="#EBD7D5"/>
<path d="M26.2457 15.2488C27.1318 15.3496 27.8773 15.5093 28.4823 15.7278C29.0872 15.9464 29.5771 16.2153 29.952 16.5347C30.3269 16.854 30.5953 17.2154 30.7572 17.6189C30.9191 18.0223 31 18.4509 31 18.9047C31 19.4426 30.885 19.9427 30.6549 20.405C30.4249 20.8672 30.05 21.2622 29.5302 21.59C29.0105 21.9178 28.3161 22.1741 27.447 22.359C26.578 22.5439 25.5044 22.6364 24.2264 22.6364H16.0767L16 22.1069C16.4431 22.0228 16.7966 21.6236 17.0608 20.9092C17.3249 20.1948 17.457 19.2073 17.457 17.9466V13.6897C17.457 12.4122 17.3249 11.4205 17.0608 10.7145C16.7966 10.0085 16.4431 9.60513 16 9.50427L16.0767 9H23.2806C24.4053 9 25.3468 9.07984 26.1051 9.23953C26.8634 9.39922 27.4769 9.62614 27.9455 9.9203C28.4141 10.2145 28.7464 10.559 28.9423 10.9541C29.1383 11.3491 29.2363 11.7903 29.2363 12.2778C29.2363 12.9838 29.0148 13.5973 28.5717 14.1184C28.1287 14.6394 27.3533 15.0176 26.2457 15.253V15.2488ZM22.0026 15.1731H22.1559C22.5479 15.1563 22.9185 15.1059 23.2678 15.0219C23.6172 14.9378 23.9239 14.7865 24.188 14.568C24.4521 14.3495 24.6609 14.0553 24.8143 13.6855C24.9676 13.3157 25.0443 12.8451 25.0443 12.2736C25.0443 11.6684 24.9634 11.1852 24.8015 10.8238C24.6396 10.4624 24.4181 10.1892 24.1369 10.0043C23.8557 9.81944 23.532 9.69758 23.1656 9.63874C22.7992 9.57991 22.4115 9.5505 22.0026 9.5505V15.1689V15.1731ZM23.8941 21.9514C24.5246 21.7665 25.0699 21.4387 25.53 20.9681C25.9901 20.4974 26.2201 19.8082 26.2201 18.9005C26.2201 18.2114 26.088 17.6609 25.8239 17.2491C25.5598 16.8372 25.219 16.5221 24.8015 16.3035C24.384 16.085 23.9281 15.9421 23.434 15.8749C22.9398 15.8077 22.4627 15.7741 22.0026 15.7741V20.7411C22.0026 21.1782 22.1176 21.506 22.3476 21.7245C22.5777 21.943 22.8716 22.0522 23.2295 22.0522C23.468 22.0522 23.6896 22.0186 23.8941 21.9514Z" fill="#EBD7D5"/>
</svg>
