<svg width="109" height="142" viewBox="0 0 109 142" fill="none" xmlns="http://www.w3.org/2000/svg">
<path d="M6.56012 17.535C5.35959 18.0887 4.62677 18.472 3.84721 18.7701C2.86495 19.1392 1.83592 19.3238 0.91603 18.5856C-0.0662163 17.8047 -0.144158 16.7967 0.152076 15.7746C0.510673 14.5536 1.22786 13.4888 2.08538 12.4667C4.9074 9.10197 8.60254 6.87306 12.9525 5.49595C13.7633 5.24041 14.4493 4.99904 14.9638 4.18981C18.0041 -0.594574 23.6949 -1.36119 28.2788 2.30163C28.6062 2.55718 28.8868 2.85531 29.1986 3.13925C30.1809 3.3522 31.0696 2.94048 31.9895 2.79851C35.5755 2.24483 39.0367 2.57137 42.4045 3.80651C42.8878 3.97687 43.3555 4.18982 43.7921 4.44537C44.7587 5.02745 45.6007 5.75149 45.4136 6.92984C45.2109 8.16498 44.0727 8.46311 42.9657 8.71865C41.6093 9.03099 40.2217 8.83223 38.834 8.87482C38.6625 9.76923 39.5668 9.86861 40.019 10.2235C41.6093 11.4445 43.184 12.6796 44.1818 14.3833C44.8834 15.5758 45.0861 16.7967 44.1351 17.9325C43.4179 18.7843 42.0147 18.8269 40.3152 18.1597C39.7695 17.9467 39.2238 17.7054 38.6781 17.464C38.148 17.2369 37.7427 16.7825 36.9163 16.7542C36.9631 17.5776 37.4932 18.1881 37.7895 18.8695C38.3663 20.1898 38.8964 21.5244 38.8184 22.9724C38.6937 25.1588 37.2437 25.9112 35.1701 24.8748C34.1722 24.3779 33.4083 23.6255 32.6911 22.8305C32.2545 22.3478 32.0363 21.7089 31.2567 21.4108C31.2567 23.3983 31.4438 25.3859 29.7599 26.9618C29.4013 27.2883 29.6819 27.7142 29.7599 28.0833C31.0696 33.5492 32.8002 38.9014 35.5443 43.9414C35.6067 44.055 35.7782 44.126 36.0744 44.3531C36.8072 42.4649 36.8384 40.4915 37.5868 38.6885C39.255 34.6424 41.5625 30.8518 43.3711 26.8624C43.6673 26.2093 43.9012 25.5279 44.2598 24.9032C44.7431 24.0514 45.3044 23.2422 46.5517 23.2706C47.7679 23.299 48.3915 24.0514 48.8748 24.9174C49.5764 26.1384 49.7479 27.5013 49.592 28.8216C49.1399 32.74 48.3759 36.6157 46.349 40.1792C44.9302 42.6637 42.9969 44.7222 40.4244 46.2981C38.1013 47.7178 37.9765 48.2431 39.4265 50.5288C42.5448 55.4552 46.2867 59.984 50.278 64.3425C53.9264 68.3318 57.6683 72.2502 61.7688 75.8846C62.2521 76.3105 62.6107 76.9068 63.5774 76.9636C64.7779 74.5217 66.0253 72.0372 67.2102 69.5386C67.7559 68.3886 67.3817 67.2102 67.0854 66.0603C66.8516 65.1517 66.4774 64.2573 66.15 63.3487C63.3903 62.6246 60.6619 61.9716 57.9646 61.2049C50.4028 59.047 45.5383 50.472 48.22 42.6921C48.3292 42.3939 48.4851 42.11 48.641 41.8402C49.7479 39.8668 51.0732 39.7249 52.4452 41.5705C54.2227 43.984 55.7506 46.5536 57.8086 48.811C59.6952 50.8695 61.4726 53.0133 63.4215 55.0008C66.0253 57.6557 68.1145 60.5803 69.5177 64.3992C72.823 57.5137 74.5849 50.6992 76.5494 43.6433C75.4891 43.9698 75.2864 44.6512 74.8811 45.1623C74.1951 46.0567 73.587 47.0221 72.6827 47.7746C71.8719 48.4418 70.9989 48.9671 69.8919 48.4844C68.8161 48.0159 68.551 47.1073 68.5822 46.1135C68.629 45.0914 68.6134 44.0692 68.9876 43.0754C69.2838 42.2804 69.5645 41.4711 69.5333 40.4205C68.4731 40.9316 67.6155 41.4285 66.6957 41.7976C65.6199 42.2236 64.4817 42.3655 63.5618 41.4995C62.7199 40.7045 62.8914 39.7391 63.2812 38.8305C63.858 37.5244 64.4973 36.2324 65.4328 35.0825C65.7602 34.6708 66.3683 34.33 66.0876 33.6344C65.4016 33.2936 64.8091 33.7905 64.1543 33.8757C63.2967 33.9893 62.4704 34.2164 61.6129 34.2732C60.6619 34.33 59.6328 34.2732 59.1183 33.3788C58.6038 32.4844 59.1183 31.7462 59.6952 31.0079C60.5839 29.8864 61.8312 29.1907 63.0785 28.4951C64.9806 27.4303 67.0699 26.7772 69.4086 26.1242C67.9274 24.6903 66.4774 23.3558 67.6 21.4534C68.6758 19.6219 70.687 20.1046 72.5112 20.1614C72.7451 19.2954 72.1526 18.6282 72.0903 17.8615C71.9344 15.9733 73.4155 14.8659 75.4112 15.5048C76.8144 15.9591 77.937 16.8393 79.0907 17.8473C80.1354 17.1375 80.8993 15.9307 82.5208 16.0869C83.9552 16.2289 84.6413 17.322 85.6859 18.0887C86.7773 17.0665 87.8842 16.0443 89.5369 16.6406C91.7977 17.4498 90.753 19.48 91.174 21.0701C92.9358 20.5164 94.5417 19.9911 96.1632 19.5226C97.582 19.1251 99.032 18.9263 100.513 19.267C103.288 19.9201 104.006 21.9361 102.103 23.8527C101.542 24.4205 100.903 24.9316 100.077 25.6557C101.605 25.9822 102.914 26.2661 104.208 26.5501C105.487 26.834 106.672 27.2883 107.67 28.0833C108.558 28.7932 109.244 29.574 108.917 30.7382C108.589 31.8456 107.685 32.456 106.531 32.6832C104.832 33.0239 103.117 33.0807 101.371 32.8961C100.887 32.8535 100.388 32.5838 99.7804 32.9955C99.9519 33.748 100.669 34.2591 101.074 34.9121C102.103 36.5732 103.07 38.2484 102.945 40.2218C102.805 42.763 101.121 43.6716 98.5331 42.6637C97.3325 42.1952 96.3191 41.4569 95.0562 40.6903C95.025 41.6983 95.025 42.5217 94.9627 43.3451C94.9159 43.9698 94.9003 44.6087 94.6976 45.2049C93.9492 47.5332 91.8756 48.0017 90.0202 46.2555C89.1159 45.4037 88.5547 44.3247 87.9154 43.2883C87.6815 42.905 87.5724 42.3939 86.8084 42.1526C86.3719 43.7142 86.06 45.2475 85.3584 46.6672C85.0778 47.2493 84.8127 47.8172 84.3294 48.2857C83.0977 49.464 81.6945 49.4782 80.5407 48.2573C80.0418 47.732 79.6988 47.0931 79.0596 46.1845C76.6117 53.1268 74.8343 59.9414 71.8096 66.472C72.3241 66.5146 72.5424 66.5856 72.6515 66.5288C77.3757 63.7462 82.7235 62.4259 88.1025 61.2191C91.9691 60.3531 95.8046 59.4445 99.5153 58.1242C99.9207 57.9822 100.342 57.8686 100.747 57.7551C102.088 57.3859 103.522 56.96 104.582 58.1668C105.565 59.2883 105.159 60.5661 104.551 61.7444C102.478 65.7764 98.8916 68.4738 94.6664 70.4472C89.4745 72.8749 84.0955 73.1872 78.6542 71.0434C77.859 70.7311 77.0639 70.433 76.2687 70.1206C72.636 68.6867 72.2929 68.8003 69.8763 71.7675C68.0521 74.0248 67.3661 76.7506 65.8225 79.4339C71.6069 84.6016 77.4225 89.8119 82.4896 95.7604C83.1445 94.9796 83.1289 94.2555 83.2068 93.5883C83.6745 90.11 85.3896 87.1712 87.8686 84.5448C89.5681 82.756 91.4702 81.1517 93.4659 79.6326C95.3369 78.2271 97.1922 76.8216 99.032 75.3877C99.9987 74.6353 101.074 74.0532 102.306 74.6069C103.647 75.2174 103.772 76.4241 103.631 77.6734C103.351 80.1437 102.446 82.401 100.872 84.4454C99.2191 86.6033 97.0831 88.3212 94.8067 89.897C93.3567 90.905 91.9223 91.913 90.5191 92.9494C89.1627 93.9574 88.1025 95.1783 87.1982 96.5412C85.8886 98.5146 85.7638 100.247 87.2294 102.39C90.5347 107.189 93.4659 112.201 96.0541 117.368C96.4906 118.234 97.2702 119.185 96.2879 120.165C95.446 120.35 95.1965 119.838 94.9159 119.342C91.4234 113.35 87.3385 107.686 83.2848 102.007C82.9106 101.482 82.4897 100.985 82.1311 100.431C81.5074 99.4658 80.681 99.2529 79.5117 99.6078C77.859 100.105 76.3622 100.9 74.8343 101.624C70.7962 103.569 66.5554 104.747 61.9092 104.463C60.693 104.392 59.5081 104.193 58.3387 103.895C57.4344 103.654 56.3898 103.526 56.0936 102.532C55.7818 101.482 56.7173 100.999 57.4189 100.445C62.7979 96.2289 68.7693 93.5457 76.1596 94.4969C75.4736 92.6229 68.3639 85.9503 64.0763 83.1535C58.4635 94.5963 52.5232 105.869 50.1533 118.405C53.178 116.573 56.5301 115.863 59.8667 115.125C64.3102 114.131 68.7849 113.237 73.1505 111.988C74.2107 111.689 75.3956 111.349 76.1752 112.484C76.8924 113.521 76.4714 114.557 75.7698 115.338C71.7472 119.711 66.8828 122.82 60.428 123.189C58.3231 123.317 56.3898 122.522 54.5189 121.627C53.6146 121.201 52.835 120.492 51.5409 120.492C49.2802 122.848 48.6254 125.716 48.7345 128.854C48.8592 132.403 49.4517 135.881 50.1065 139.359C50.2625 140.197 50.8237 141.233 49.5452 142C48.4071 141.702 48.1732 140.751 47.877 139.885C45.8345 133.95 45.2576 127.888 46.2867 121.727C46.6609 119.469 47.0507 117.212 47.5808 114.983C49.2179 108.211 46.9259 102.277 42.9502 96.6974C42.6695 96.2999 42.3421 95.945 41.8587 95.3771C41.3442 96.2999 41.8276 97.5918 40.5335 97.9893C39.4265 98.3301 38.6158 97.5918 37.7271 97.1801C37.3997 97.9609 37.7582 98.5714 37.7115 99.1819C37.54 100.999 36.1367 101.581 34.4841 100.545C33.0497 99.6362 32.2701 98.2165 31.2567 96.9104C30.6019 97.6344 30.7577 98.3868 30.4927 99.0257C30.1029 99.9201 29.6975 100.871 28.4502 100.9C27.125 100.928 26.7352 99.9201 26.5013 99.0115C26.018 97.1517 26.0336 95.2777 26.6729 93.4321C26.9379 92.6938 27.3277 91.9698 27.1874 91.1322C26.2675 91.0044 25.5814 91.6575 24.7395 91.7001C23.6949 91.7711 22.5567 91.8136 21.8707 90.9902C21.0756 90.0532 21.4498 89.0452 22.1358 88.1508C22.5256 87.6397 22.9621 87.1428 23.4298 86.575C22.7906 85.8225 21.5121 85.3824 21.8396 84.1331C22.167 82.8979 23.461 82.8695 24.5056 82.4294C24.3497 81.5492 23.5234 80.7826 23.8976 79.803C24.3342 78.6388 25.5035 78.8376 26.3766 78.8376C26.8755 77.9858 26.4701 77.2901 26.5013 76.5944C26.5481 75.4587 26.6572 74.3087 27.9669 73.7835C29.3078 73.244 30.025 74.1384 30.6954 74.9902C30.7733 75.0896 31.0072 75.1038 31.2099 75.1747C31.7868 74.0532 32.1454 72.8181 32.9717 71.8101C33.6733 70.9583 34.4841 70.2484 35.7782 70.5181C36.7136 70.7169 37.54 71.9378 37.4932 73.1872C37.462 74.0958 37.2593 75.0044 37.119 76.055C38.4131 75.5439 39.4733 74.9902 40.6115 74.7346C43.0437 74.181 44.2598 75.4587 43.5426 77.645C43.1217 78.9512 41.9367 79.8314 41.126 81.2227C42.7163 81.1233 43.9947 81.5208 45.2576 82.0177C46.2867 82.4294 47.0662 83.0399 46.9571 84.1331C46.8635 85.1411 46.1464 85.8651 45.1018 86.22C44.4625 86.433 43.7609 86.5039 43.0593 86.6459C43.106 87.4693 43.9792 87.6823 44.4625 88.1792C45.0238 88.7755 45.6474 89.3008 46.006 90.0532C46.77 91.6291 46.4894 92.3389 44.7588 92.9636C44.4469 93.0772 44.1039 93.1198 43.5894 93.2475C44.5561 95.3487 46.3179 96.8962 47.4248 98.8128C48.563 100.772 49.3737 102.816 50.1377 105.074C51.3538 104.051 51.4318 102.689 51.9151 101.524C54.5657 95.1215 57.7463 88.9317 60.7554 82.6708C61.6285 80.8394 61.6597 80.8252 60.1161 79.4481C52.8194 73.0168 46.3802 65.9325 40.4712 58.4223C38.8652 56.3922 36.8539 54.8731 34.2034 53.8509C32.426 55.0576 30.5239 56.1366 28.497 57.0026C22.9465 59.3593 16.788 58.2661 12.6251 54.1348C11.2063 52.7435 10.0369 51.1819 9.16383 49.464C8.85201 48.8394 8.47783 48.1295 9.17944 47.4906C9.77191 46.9511 10.4891 47.1357 11.1283 47.3345C14.2466 48.3283 17.4272 49.0523 20.6858 49.4072C23.3363 49.7054 26.018 49.8899 28.6685 50.1597C30.8981 50.3868 33.0964 50.7843 35.2325 51.551C35.6846 50.8979 35.1077 50.5004 34.8583 50.0745C31.0072 43.6007 28.1852 36.7861 26.6884 29.5314C26.3142 27.7142 26.8132 28.1827 23.8976 26.834C23.2428 27.2883 23.1492 28.0408 22.7594 28.637C21.403 30.7098 18.9864 30.7524 17.6143 28.637C16.3514 26.7062 15.9772 24.5199 15.7122 22.3194C15.6342 21.7231 15.8993 21.0416 15.0885 20.5873C14.574 21.5811 14.1219 22.6033 13.5294 23.5403C13.0617 24.2786 12.4692 24.9742 11.8455 25.6273C10.8477 26.6779 9.64715 27.5581 8.02566 27.0896C6.3262 26.5927 5.85848 25.2014 5.6558 23.7249C5.54666 22.9298 5.62464 22.149 5.78055 21.3824C5.99883 20.2182 6.21711 19.0541 6.51334 17.4924L6.56012 17.535ZM78.8101 68.3318C87.7283 71.4977 100.03 67.0825 101.324 60.3815C94.9159 62.0709 88.5702 63.7036 82.1466 65.1091C84.6724 65.6912 87.1046 65.0949 89.5525 64.8678C91.9847 64.6548 94.1675 63.4197 96.6933 63.4339C94.2611 65.3079 91.2987 66.1029 88.3987 66.9405C85.4052 67.8065 82.1778 67.5368 78.7945 68.3176L78.8101 68.3318ZM75.4579 26.7489C77.7655 29.5599 83.0665 31.1215 86.4187 30.1277C87.8686 29.7018 88.4455 28.7364 88.5391 27.4871C88.6326 26.1952 88.4143 25.031 86.9643 24.2928C83.6434 22.6033 78.1708 23.6965 75.4579 26.7489ZM28.4502 7.1286C27.7019 3.86329 25.7842 2.33003 22.4944 2.25904C19.7815 2.20225 17.4584 3.99107 16.6788 6.75948C16.1176 8.73287 17.2713 10.0958 19.5009 9.82602C22.6659 9.4427 25.7218 8.69027 28.4502 7.1286ZM25.0981 11.1463C24.3497 11.5155 23.5234 11.3451 22.7906 12.1543C23.0401 15.7888 23.3519 19.5794 24.8643 23.1996C25.0981 23.7675 25.4723 24.3354 25.9089 24.7897C26.6416 25.5563 27.7174 25.4427 28.2475 24.5483C28.4814 24.1508 28.6218 23.6397 28.575 23.1996C28.232 19.0541 27.2965 15.0505 25.0981 11.1463ZM21.1847 12.2253C19.4853 12.0408 18.7057 12.4951 18.4095 13.8722C17.5675 17.8615 17.5675 21.8083 18.7992 25.7125C19.0175 26.4223 19.2046 27.2599 20.3272 27.5865C21.668 25.6841 22.2137 23.6397 21.7772 21.3966C21.2003 18.3868 20.6858 15.3771 21.1847 12.2395L21.1847 12.2253ZM15.1665 10.5217C10.4111 14.4258 6.66924 21.07 8.78966 24.4773C11.8455 22.9015 16.0552 13.9006 15.1665 10.5217ZM60.1317 55.9236C56.7796 51.9485 53.5522 47.9307 50.9017 43.2599C48.7033 50.0319 53.0221 57.6273 59.321 58.6069C54.8151 54.7169 52.3984 51.5226 51.8839 48.2289C53.6302 49.7338 54.4565 51.267 55.5791 52.559C56.8108 53.9787 58.3231 55.086 60.1317 55.9236ZM82.4272 46.1277C84.7815 43.5865 86.138 34.3868 84.4074 33.0665C83.7525 32.8677 83.0198 32.6832 82.1311 32.9387C81.102 37.3256 80.5251 41.6841 82.4429 46.1277L82.4272 46.1277ZM100.934 77.4605C97.8315 78.4685 89.9423 84.9139 88.695 87.5687C89.7084 86.7453 90.5036 86.0638 91.3299 85.425C92.1874 84.7577 93.0917 84.1473 93.9492 83.4942C94.8847 82.7843 95.7578 82.0319 96.7245 81.3646C97.5196 80.811 98.1433 79.945 99.3126 79.9308C96.3035 83.6362 91.9691 86.22 89.4278 90.252C92.3433 88.1508 95.6331 86.4898 98.0809 83.8775C99.7959 82.0319 100.716 79.9308 100.95 77.4747L100.934 77.4605ZM79.309 32.2431C78.2644 31.6468 77.8279 31.9307 77.4537 32.4702C74.9903 36.0763 72.558 39.6823 71.1859 43.7852C70.9989 44.3247 70.7962 44.9068 71.1859 45.9006C74.8031 41.4995 77.6096 37.1978 79.2934 32.2431L79.309 32.2431ZM74.7875 99.2387C71.451 98.7702 68.7381 100.133 65.9317 100.09C65.8693 99.8775 65.807 99.6646 65.729 99.4516C67.8026 98.6708 69.8919 97.89 71.9655 97.1091C67.5064 97.1091 63.8113 98.5714 60.4903 101.539C65.6978 102.476 70.1101 101.496 74.7875 99.2387ZM42.1394 16.456C40.8609 13.0062 33.9384 8.15079 30.1809 8.02302C33.7201 11.4587 36.7604 15.0647 42.1394 16.456ZM28.7933 9.64147C28.8712 13.1623 33.2991 20.8429 36.4953 23.086C35.5599 17.5492 31.8803 13.7302 28.7933 9.64147ZM100.092 40.3354C99.4062 35.9059 96.5062 33.2511 92.7019 31.2209C92.2498 30.9795 91.7041 31.0647 91.3299 31.6042C93.0449 33.8473 94.7444 36.1189 96.4906 38.362C97.3014 39.3984 98.2524 40.2928 100.092 40.3354ZM25.4567 52.6867C23.0869 52.133 20.7014 51.9059 18.3471 51.409C16.0708 50.9263 14.0283 49.7054 11.5025 49.3362C14.6987 54.1348 18.9396 56.1792 23.6481 55.3132C20.4208 54.1064 17.1934 52.9849 14.2466 51.196C18.0197 51.6929 21.481 53.8651 25.4567 52.6867ZM88.009 33.5634C88.3987 37.7657 89.0691 41.6983 92.2342 45.063C93.0761 42.2662 92.5616 39.9662 90.0826 34.9689C89.724 34.259 89.4745 33.4782 88.009 33.5492L88.009 33.5634ZM46.2399 26.3513C45.6474 27.2741 45.1173 28.1402 44.8679 29.1197C44.7119 29.7302 43.87 30.4401 44.3066 30.8234C45.32 31.732 44.7276 32.5838 44.4625 33.393C43.6674 35.8633 43.1528 38.433 41.812 40.7471C41.5313 41.2298 41.2975 41.7408 41.469 42.3229C45.3824 39.3274 48.1732 30.1987 46.2555 26.3513L46.2399 26.3513ZM58.9624 120.023C63.6242 120.903 70.3596 118.064 72.0747 114.6C67.943 115.423 63.8737 116.247 59.8043 117.056C62.2366 117.851 64.5752 116.985 66.9919 117.368C64.9027 119.356 61.878 119.043 58.9624 120.023ZM100.607 21.6663C96.4438 21.0275 93.3412 22.7595 90.2853 24.0656C90.0514 24.7329 90.3632 25.0452 90.5503 25.3859C90.7063 25.6699 90.8777 25.9254 91.2519 26.0248C96.2879 24.8464 98.3304 23.9378 100.622 21.6663L100.607 21.6663ZM74.9591 29.7302C71.7317 32.8393 67.1478 34.8837 65.6043 39.5687C66.0253 39.5119 66.2279 39.5261 66.3526 39.4551C70.1413 37.283 72.6983 34.0035 75.5515 30.9937C76.0037 30.511 75.5203 30.1419 74.9591 29.716L74.9591 29.7302ZM13.7633 7.92363C9.21062 9.84022 5.12568 12.2537 2.81817 16.4844C7.43319 14.653 10.645 11.3451 13.7633 7.92363ZM73.2752 27.7994C69.4709 27.1605 63.328 29.5031 61.3167 32.3283C65.807 31.7746 69.6424 30.2555 73.2752 27.7994ZM42.9813 6.6601C39.8319 4.94226 33.2523 4.346 30.5395 5.65212C34.5932 5.99285 38.491 7.96622 42.9813 6.6601ZM105.081 30.1419C101.558 28.2395 97.8314 27.9982 93.9804 28.5377C97.5352 30 101.199 30.8518 105.081 30.1419ZM30.6486 89.4001C32.0051 87.9662 32.504 86.4188 32.847 84.8003C33.0341 83.9343 32.8158 83.1393 31.8803 82.8837C30.789 82.5856 30.0718 83.2386 29.7911 84.1614C29.261 85.9219 28.9336 87.6681 30.6486 89.4143L30.6486 89.4001ZM43.6829 90.6637C41.3599 87.6681 37.54 85.9645 34.297 86.4472C37.3529 88.0656 39.9878 89.8118 43.6829 90.6637ZM41.2039 77.1482C38.0701 78.3123 36.4797 79.519 34.297 82.3016C37.2593 81.1375 39.5201 79.874 41.2039 77.1482ZM73.3219 25.4285C74.1951 25.0026 74.694 24.5199 74.9435 23.6539C73.2908 23.1428 71.9031 21.8651 69.7671 22.5039C70.5623 24.0088 71.9499 24.6193 73.3219 25.4285ZM35.6222 99.0115C35.2636 96.527 34.6244 94.1278 32.5351 92.2963C33.0653 94.7098 33.4706 97.1659 35.6222 99.0115ZM75.115 17.6628C75.1618 19.0683 75.8789 20.2892 77.8746 22.3478C78.8413 20.6725 77.8746 19.0683 75.115 17.6628ZM33.7357 89.1446C35.4663 91.0328 36.3706 93.4747 38.8496 95.3913C37.8518 92.4525 36.1524 90.5643 33.7357 89.1446ZM83.9396 21.2546C83.5498 20.0195 83.7057 18.7417 82.0375 18.3016C81.3515 19.267 81.2735 20.2466 81.2891 21.283C82.0999 21.4676 82.8482 21.354 83.9396 21.2404L83.9396 21.2546ZM29.5416 91.3025C28.8556 93.6592 28.0605 95.4907 28.84 97.464C29.9314 95.7036 29.9938 93.8154 29.5416 91.3025ZM38.8496 83.8207C40.7206 84.0905 42.5448 85.0985 44.6964 83.9911C42.5915 83.3522 40.7518 83.0115 38.8496 83.8207ZM28.7621 76.126C28.2164 78.4969 28.4503 79.732 29.7443 81.1943C29.8535 79.3771 30.0094 77.7018 28.7621 76.126ZM86.3407 21.5953C86.8864 21.9219 87.4477 22.362 87.9466 21.8367C88.7573 21.0133 88.695 20.0053 88.3364 18.8837C87.1826 19.5936 86.6681 20.5022 86.3251 21.5953L86.3407 21.5953ZM27.6239 87.3842C25.6906 87.7533 24.3965 88.2218 23.274 89.8828C25.2229 89.4001 26.8755 89.4853 27.6239 87.3842ZM32.1766 80.6832C33.6422 79.1783 34.4217 77.4463 34.4841 75.0754C33.0497 76.9778 32.8002 78.9086 32.1766 80.6832ZM25.2229 84.5022C25.5659 85.3114 26.2363 85.1269 26.782 85.1694C27.0159 85.1836 27.203 84.9991 27.1094 84.7151C26.5325 84.4454 25.9245 84.3318 25.2229 84.5022ZM41.391 37.2688C42.1238 36.2182 42.8254 35.6078 42.6695 34.2023C42.1238 35.3238 41.3754 35.9059 41.391 37.2688Z" fill="#E0E0E2"/>
</svg>
