<svg width="123" height="110" viewBox="0 0 123 110" fill="none" xmlns="http://www.w3.org/2000/svg">
<path d="M117.143 37.9402C117.717 40.498 117.143 41.7494 114.792 42.932C113.002 43.8259 111.062 44.2659 109.149 44.7335C108.274 44.9535 107.55 45.1047 106.962 46.1086C106.115 47.5525 104.393 47.9925 102.767 47.8413C101.195 47.69 99.7605 47.8963 98.3667 48.5701C96.8088 49.3264 95.128 49.6565 93.4608 50.0278C91.8073 53.1356 89.3612 54.4282 83.6354 55.1708C83.4031 56.6559 82.3509 57.3435 80.957 57.8661C79.1395 58.5536 77.322 58.9799 75.4225 58.7187C74.6299 61.4552 73.9877 62.129 68.4805 61.7715C68.1936 62.3765 68.7675 62.7341 68.8905 63.2154C69.2868 64.673 68.6718 65.7181 67.196 65.9932C66.2531 66.1719 65.3375 65.9794 64.4902 65.6081C62.7137 64.8243 61.1422 63.7517 59.9807 62.1428C59.2017 61.0702 58.4091 60.0113 57.5619 58.8562C52.1914 61.7027 46.8346 64.5355 41.1361 67.5471C44.9078 68.9635 48.1328 70.6962 51.9727 70.5174C55.0748 70.3799 58.1768 70.6687 61.2105 71.37C62.0851 71.5763 63.192 71.5625 63.356 72.7726C63.5337 74.0653 62.5498 74.6841 61.6069 75.1516C59.5434 76.183 57.2749 76.2242 55.0338 76.2105C52.5194 76.183 50.2236 75.4267 48.1328 74.0653C46.5749 73.0614 45.0171 72.0576 43.5139 70.9849C40.9175 69.156 38.3074 69.0597 35.5607 70.6274C26.8012 75.6467 19.0392 81.8486 12.8078 89.8794C12.3022 90.5395 11.7009 91.1445 11.4413 92.0384C12.4935 92.0796 13.2998 91.6396 14.065 91.1583C16.1968 89.8106 18.5336 88.8618 20.843 87.8717C25.0246 86.084 29.3293 86.2078 33.6748 87.0191C34.3308 87.1429 35.0687 87.2941 35.2053 88.078C35.342 88.9443 34.6724 89.3431 34.0165 89.7282C29.1106 92.671 23.8494 94.1424 18.1236 93.5098C14.147 93.0698 10.8946 94.4587 8.12058 97.2502C7.45098 97.924 6.94538 98.6666 6.48076 99.4779C4.75892 102.531 3.14637 105.652 1.65685 108.829C1.35621 109.461 1.19226 110.287 0.0307035 109.902C-0.119611 108.54 0.303996 107.302 0.823276 106.106C2.23082 102.806 3.88433 99.6429 5.74282 96.5901C5.9478 96.2463 6.16645 95.9163 6.3441 95.5588C7.30068 93.7161 7.23233 93.221 5.89312 91.6671C5.0732 90.7182 4.19864 89.7969 3.44705 88.7931C2.21717 87.1704 1.77987 85.3139 2.24449 83.3337C2.58612 81.8486 2.34015 80.2672 3.14641 78.8645C3.40605 78.4107 3.51538 77.8332 4.17131 77.8194C4.81359 77.8057 5.04586 78.3145 5.33284 78.7683C7.06833 81.5323 7.68329 84.6539 8.12058 87.8304C8.25724 88.8068 8.32555 89.7969 8.44854 91.007C10.102 88.2292 11.6599 85.6577 13.1768 83.0587C14.311 81.1197 15.3906 79.1395 16.5521 77.2006C18.0553 74.7116 18.0963 72.2776 16.7434 69.6786C13.8737 64.2055 14.762 59.0487 18.3013 54.2082C18.6839 53.6856 19.2032 53.2181 19.7361 52.8468C20.761 52.1317 21.4853 52.393 21.8406 53.5756C22.1139 54.4695 22.1412 55.4183 22.0866 56.3397C21.9089 58.8012 21.581 61.2214 20.7884 63.5729C20.0641 65.7181 19.5312 67.9184 19.1485 70.1461C19.0392 70.8337 18.8069 71.5625 19.4218 72.3738C22.9885 66.8595 26.4868 61.4414 29.9715 56.0646C28.7143 53.9607 27.2794 52.0492 26.4595 49.7802C25.5303 47.2087 26.0632 46.4111 28.8783 46.2461C28.1267 43.9496 28.2223 41.6806 29.0833 39.4391C30.0262 37.0051 31.2971 36.3176 33.9208 36.8951C34.4401 35.7813 34.6041 34.5024 35.2327 33.416C35.7793 32.4809 36.6675 31.8346 37.1868 30.9545C37.6651 30.1569 37.2551 29.0018 37.6651 28.0667C38.1707 26.9528 38.7993 25.894 40.1932 25.8527C40.6442 25.839 40.9311 25.729 41.1771 25.3852C42.038 24.1613 43.2543 23.3775 44.4022 22.7174C44.6481 21.5623 44.8668 20.5172 45.0991 19.4858C45.6047 17.1893 46.6843 15.2504 48.6248 13.9165C49.3627 13.4077 49.39 12.7339 49.5403 12.0463C50.3466 8.44341 53.4486 5.3906 57.1383 4.70303C57.5619 3.30038 58.5595 2.24152 59.639 1.26517C60.295 0.673855 61.0329 0.275063 61.8938 0.0825429C63.438 -0.261243 64.4492 0.48133 64.6542 2.0765C64.8592 3.56165 64.2169 4.79928 63.5883 6.03691C63.356 6.50446 63.0144 6.917 62.6727 7.43956C64.5449 8.95222 64.2579 10.7537 63.3287 12.6101C62.3038 14.6316 61.0739 16.5018 59.4204 18.1794C59.885 19.7883 59.4614 21.2735 58.5868 22.6762C58.1358 23.405 57.9035 24.0925 58.0265 25.0689C58.2451 26.6641 57.2203 27.8604 55.9221 28.6305C54.7742 29.3181 54.0909 30.1844 53.6809 31.4633C52.943 33.7461 51.2348 35.355 49.4993 36.8676C49.8819 39.5629 49.8683 39.5904 47.7638 43.3858C49.3763 44.926 49.5676 45.7511 48.3787 47.69C46.8756 50.1378 44.9351 52.2005 42.2703 53.2593C42.243 53.4656 42.202 53.5481 42.2293 53.6031C43.5002 55.9134 43.1722 56.711 40.6578 57.3985C38.649 57.9486 36.6129 57.9073 34.5768 57.536C33.7978 57.3848 33.0326 57.206 32.3083 57.0547C30.1082 59.3237 19.5448 76.018 17.0031 81.216C17.29 81.4223 17.4677 81.1473 17.6044 81.0097C24.3004 74.4365 32.1307 69.541 40.4255 65.3056C41.9697 64.5218 43.3636 63.5454 44.6071 62.3215C45.3724 61.5652 45.632 60.8089 45.55 59.6813C45.3724 57.2473 45.0854 54.772 46.1376 52.4205C47.6545 49.0239 50.5242 47.5387 53.7219 46.5761C54.5282 47.3737 54.2275 47.965 53.8859 48.5701C52.9293 50.234 52.0684 51.953 50.9888 53.5344C49.8546 55.1983 48.9937 56.9585 48.3924 58.8699C48.0918 59.805 47.6408 60.6851 47.1215 61.9502C50.5379 60.3413 53.6673 58.8699 56.8513 57.371C56.66 55.9271 56.5096 54.552 56.2773 53.1906C56.045 51.7742 56.209 50.4128 56.5916 49.0514C57.0836 47.2775 57.6849 46.9062 59.7483 47.195C60.049 46.1224 60.5956 45.1735 61.6069 44.5684C62.2081 44.2109 62.8367 44.1284 63.561 44.4034C64.4492 43.3721 65.2828 42.2444 66.3897 41.4056C67.1823 40.8005 67.9612 40.2092 68.9451 39.9205C71.0769 39.2879 71.9242 39.7554 72.5255 41.9694C73.8783 41.8869 74.8212 41.3368 75.3815 40.003C75.7095 39.2191 76.4338 38.6416 77.1307 38.1465C78.9345 36.8676 80.0688 37.0051 81.5446 38.7241C83.5261 37.899 85.5622 37.5277 87.571 38.5866C90.6048 36.3863 93.5975 34.2824 97.5467 35.245C98.9406 34.2824 100.307 33.3473 101.66 32.3847C103.396 31.1608 105.363 30.6795 107.454 30.597C109.012 30.542 110.502 30.7482 111.472 32.3159C113.918 30.982 116.432 30.377 119.152 30.6932C120.177 30.8033 121.092 31.092 121.953 31.6008C123.019 32.2334 123.265 33.3885 122.718 34.5299C122.199 35.6025 121.297 36.2488 120.3 36.7989C119.316 37.3352 118.209 37.5965 117.157 37.9265L117.143 37.9402ZM58.8738 73.5702C59.9533 74.299 60.5819 73.6802 61.2652 72.8414C60.3086 72.3188 59.3794 72.2913 58.4911 72.1813C57.6439 72.0713 56.7966 72.03 55.963 71.9613C55.1295 71.8925 54.2958 71.9338 53.4213 72.0988C55.3754 72.7176 57.4935 72.3188 59.352 73.1989C59.2427 73.5015 59.0787 73.584 58.8874 73.5977C56.2363 73.9828 53.6263 73.529 50.7839 73.0614C52.984 74.6703 56.5643 75.1379 58.6824 74.2165C58.9967 74.079 58.9557 73.8177 58.8874 73.5702L58.8738 73.5702ZM108.493 37.6652C109.887 37.4177 111.075 37.0051 112.333 36.9914C114.997 36.9639 117.307 35.85 119.575 34.6124C120.122 34.3099 120.723 33.9798 120.737 33.2097C117.088 31.6971 108.616 34.6812 108.493 37.6652ZM102.521 43.0145C103.546 44.1146 104.83 43.8534 105.951 43.6608C109.19 43.1383 112.305 42.2307 114.902 39.6454C113.549 38.9578 112.374 39.1091 111.226 39.1916C109.736 39.3016 108.233 39.2879 107.181 40.7868C106.58 41.6394 105.432 41.9144 104.42 42.2444C103.819 42.437 103.109 42.4095 102.521 43.0145ZM106.525 38.009C101.756 37.1839 98.5443 39.7692 94.8 41.7769C98.4896 42.9458 104.338 41.1168 106.525 38.009ZM84.2777 47.47C83.2118 45.9573 82.5148 45.7098 80.875 46.2736C79.3035 46.8099 77.978 47.7863 76.5568 48.8451C77.158 49.7115 77.199 50.7428 77.3357 51.8017C80.2054 51.0041 82.5149 49.6565 84.2777 47.47ZM65.5835 54.6757C65.7338 54.7857 65.8295 54.9508 65.9251 54.937C69.2321 54.662 72.1292 53.3419 74.8076 51.4442C75.1356 51.2104 75.3952 50.9078 75.2312 50.4403C75.0809 50.014 74.7393 49.8627 74.3293 49.7527C73.7964 49.6015 73.2907 49.7115 72.7714 49.8352C69.7651 50.5366 67.36 52.1042 65.5835 54.6757ZM86.3138 40.2505C83.0751 39.3566 77.9916 42.2995 76.9667 45.5035C78.5109 45.0497 79.9184 44.2659 81.4763 44.1972C84.0317 44.0871 85.1659 42.3407 86.3138 40.2367L86.3138 40.2505ZM38.813 32.5497C36.1209 34.4199 34.9594 38.8341 35.9159 42.877C36.4626 41.4331 37.2961 40.3605 38.4304 39.5217C38.69 39.3291 38.977 39.1229 39.0453 38.7791C39.4826 36.7576 39.4826 34.7637 38.813 32.5497ZM46.1513 36.3451C48.2695 36.6201 49.4037 35.2862 50.4012 33.8973C51.4125 32.4947 52.4237 31.0233 52.2324 29.1531C51.3168 28.7405 50.6746 29.1118 50.0733 29.5106C49.6906 29.7581 49.39 30.1157 49.0347 30.4182C47.2309 31.9721 46.8209 34.1998 46.1513 36.3451ZM42.4207 39.6454C44.1562 36.8676 45.9873 34.3099 45.2767 30.817C42.8579 31.6558 41.1498 34.7086 40.6988 38.7103C41.1771 38.9716 41.6827 39.2466 42.407 39.6454L42.4207 39.6454ZM90.8644 50.4678C89.2109 49.1064 86.7101 48.6389 85.3026 49.6427C83.8131 50.7016 82.2142 51.5267 80.465 52.2417C82.5968 53.5619 87.7213 52.668 90.878 50.4678L90.8644 50.4678ZM93.5975 42.932C90.2085 42.1757 87.7213 43.8396 85.2889 44.7747C85.7672 45.6823 86.1635 46.4386 86.6008 47.25C89.0605 46.2186 91.9986 46.0536 93.5975 42.9183L93.5975 42.932ZM71.7875 55.3496C73.441 56.6009 74.8076 57.4123 76.5978 57.1372C78.2923 56.876 79.8638 56.4084 81.244 55.1295C78.0053 52.9843 75.0672 54.2082 71.8012 55.3633L71.7875 55.3496ZM61.0739 55.047C64.6269 53.6856 66.827 50.1653 65.7338 47.58C62.8367 48.4051 60.4179 52.2692 61.0739 55.047ZM62.2081 57.6461C65.7475 59.2412 69.0681 60.3551 72.8944 59.6125C70.8719 56.7935 66.3214 56.0234 62.2081 57.6461ZM47.3812 38.6141C45.4954 39.0679 43.8009 40.003 42.8853 41.5844C42.161 42.8495 41.6691 44.2934 40.8901 45.641C41.9014 45.2973 43.0493 45.7098 43.8692 44.8985C45.2631 43.4958 46.6842 42.1069 47.4495 40.2092C47.6272 39.7829 47.8458 39.3566 47.3812 38.6141ZM100.635 44.6647C98.8313 43.6883 96.9182 43.7434 95.6336 44.6372C94.1851 45.6411 92.6682 46.6724 91.1924 47.7863C93.4335 49.0514 98.0114 47.5525 100.635 44.6647ZM98.7766 36.1663C99.0636 36.6201 99.2686 36.5788 99.4463 36.5101C101.441 35.7538 103.478 35.52 105.623 35.575C107.372 35.6162 108.588 34.4611 109.559 32.6184C105.213 32.2059 101.988 34.0761 98.7766 36.1663ZM51.8224 26.5265C52.533 26.8703 53.0523 26.7191 53.5579 26.2928C55.4437 24.6976 57.0016 22.8549 57.8625 20.5034C57.9855 20.1734 58.1905 19.7196 57.5346 19.4858C54.1592 20.5172 52.5057 23.0474 51.8361 26.5265L51.8224 26.5265ZM57.6985 10.1486C61.7435 6.75199 63.315 3.98795 62.6454 1.51269C58.7371 2.97034 58.4091 6.47696 57.6985 10.1486ZM47.0396 30.4457C50.4969 26.1003 51.3988 23.9688 50.7019 21.8923C48.857 22.6211 45.7687 27.3516 45.9873 29.2081C46.2879 29.5656 46.6296 29.9644 47.0396 30.4457ZM62.2081 9.7498C60.2813 9.92857 58.7644 10.6574 58.3545 12.2663C57.9035 14.0127 57.7805 15.8417 56.9606 17.5469C59.967 15.8967 61.8528 13.5314 62.2081 9.7498ZM46.4793 23.2675C47.5725 22.1398 48.4608 20.916 49.7726 20.1184C50.1279 19.8984 50.3329 19.197 50.3739 18.702C50.4832 17.5194 50.5106 16.323 49.9776 15.1954C47.3675 16.7218 45.796 20.2971 46.493 23.2812L46.4793 23.2675ZM36.2303 48.9001C39.2093 46.3974 41.1088 42.5607 40.3982 40.6355C37.8427 41.3506 36.2303 44.4584 36.2303 48.9001ZM68.6992 49.6152C69.9427 49.0239 70.9129 48.4601 71.9515 48.0888C74.1516 47.2912 75.0536 46.0948 75.1492 43.5371C72.8261 43.3583 70.1887 45.7648 68.6992 49.6152ZM52.7244 20.7372C55.7307 17.2168 56.8376 14.4115 55.9494 12.6651C54.0772 13.6277 52.5603 16.2405 52.0547 19.307C51.9591 19.8984 51.7404 20.5034 52.738 20.7372L52.7244 20.7372ZM96.9865 37.734C94.8 36.6476 93.1328 37.4727 91.5066 38.229C89.2519 39.2741 88.3363 40.168 88.104 41.2956C91.2197 40.7318 94.2944 40.0992 96.9728 37.7477L96.9865 37.734ZM56.2773 10.2586C56.7966 8.56718 56.783 8.36091 56.1543 6.90325C53.6809 7.38455 50.9479 11.7025 51.6038 14.0953C53.1525 12.0417 54.7058 10.7628 56.2637 10.2586L56.2773 10.2586ZM59.3657 58.6637C61.4292 62.129 64.7772 64.2192 67.237 63.5867C66.0344 61.5102 62.5087 59.31 59.3657 58.6637ZM19.2578 91.3921C24.1364 91.8596 28.3453 91.1308 32.3903 88.5318C31.4747 88.1605 30.7778 88.1467 30.0535 88.133C30.1492 89.0681 29.6162 89.1918 28.9876 89.3019C26.6508 89.6869 24.3277 90.0857 22.0046 90.4982C21.1847 90.6357 20.3374 90.732 19.2715 91.3921L19.2578 91.3921ZM41.3821 31.9721C42.2703 30.377 43.7189 29.8406 44.1835 28.4517C44.6071 27.1866 45.7823 26.0865 45.1127 24.5051C42.4617 25.5365 41.1225 28.0942 41.3958 31.9721L41.3821 31.9721ZM42.5983 47.3187C39.0317 48.3776 36.5172 50.124 34.891 53.0531C37.8154 51.9117 40.8491 50.9078 42.5983 47.3187ZM64.8592 45.421C66.2257 45.4623 66.95 46.0261 67.7563 46.6037C68.8222 44.8847 70.9813 44.0046 70.7353 41.3919C68.4122 42.0519 66.704 43.3721 64.8592 45.4073L64.8592 45.421ZM30.5455 45.146C31.2287 43.7021 32.281 42.7945 33.8388 42.4095C33.5792 41.0756 34.0438 39.6317 32.5816 38.6828C30.7368 40.498 30.7095 42.8358 30.5591 45.146L30.5455 45.146ZM32.6499 52.5168C33.9208 50.014 34.6451 47.4837 33.4562 44.4172C31.6933 47.2362 32.1443 49.8902 32.6499 52.5168ZM18.4516 63.4904C19.6131 61.0014 20.4058 56.5459 20.0368 54.9233C17.7547 56.9585 16.2651 61.1389 16.8254 64.5493C17.1534 63.0366 17.3994 61.8952 17.6453 60.7539C17.9733 59.2504 18.5381 58.2786 19.3398 57.8386C19.2442 59.7638 18.4106 61.4827 18.4653 63.4904L18.4516 63.4904ZM41.6417 55.2533C39.264 53.6031 36.3259 53.8644 34.3991 55.7208C36.7769 55.9271 39.0863 56.4084 41.6417 55.2533ZM47.2718 45.256C46.042 45.8336 44.9214 46.1223 44.7711 47.0299C44.5251 48.5289 43.6505 49.6427 42.7076 51.1829C45.2357 49.8077 46.7526 48.1713 47.2718 45.256ZM28.1267 48.0613C27.9627 50.014 28.8919 51.8154 30.9281 53.6444C30.5591 51.4579 30.4498 49.3402 28.1267 48.0613ZM3.50168 83.5125C4.07563 83.5675 4.06199 82.6599 4.67692 82.9762C5.41485 83.5125 5.07322 84.6539 5.96147 85.3827C5.75649 83.4987 5.37385 81.9311 4.15764 80.4872L3.51536 83.5125L3.50168 83.5125ZM79.4948 39.3016C77.3493 39.9892 76.6114 40.7593 76.7344 42.327C77.6636 41.2406 79.0165 40.8005 79.4948 39.3016ZM52.2734 48.7764C51.2257 49.2806 50.5333 50.3761 50.1963 52.063C50.9752 51.0316 51.7951 50.2065 52.2734 48.7764ZM39.8379 28.0255C39.1455 29.5931 39.1137 30.6153 39.7423 31.092C40.0839 30.1432 40.1932 29.2081 39.8379 28.0255ZM105.145 45.2423C103.805 45.1047 103.013 45.366 102.767 46.0261C103.573 46.0536 104.338 46.0123 105.145 45.2423ZM58.5458 52.668C59.0787 51.8842 59.27 50.9904 59.0104 49.6702C58.3271 50.8253 58.4775 51.7329 58.5458 52.668ZM54.2822 28.493C54.9791 27.8054 55.7307 27.4892 55.7444 26.5128C54.7058 27.0445 54.2184 27.7046 54.2822 28.493ZM61.3062 48.4463C61.9986 47.8046 62.322 47.0758 62.2764 46.2599C61.4839 46.7824 61.1422 47.4837 61.3062 48.4463ZM25.2843 88.4905C26.0085 88.7105 26.5688 88.4493 27.1428 88.243C26.8968 88.1192 26.6508 88.0505 26.4048 88.078C26.0495 88.133 25.6669 88.078 25.2843 88.4905Z" fill="#E0E0E2"/>
</svg>
