<svg width="195" height="133" viewBox="0 0 195 133" fill="none" xmlns="http://www.w3.org/2000/svg">
<path d="M71.5412 57.0131C79.7703 71.2076 86.5364 85.6513 89.4291 101.774C91.158 101.259 92.8704 101.209 94.5827 101.441C96.3449 101.674 97.9408 102.339 99.3705 103.369C101.764 105.098 104.158 106.827 106.469 108.638C108.481 110.217 109.927 112.212 110.575 114.738C111.556 118.578 110.077 120.855 106.153 121.553C105.937 121.586 105.738 121.669 105.538 121.736C105.172 122.351 105.505 122.949 105.538 123.531C105.671 126.124 104.325 128.235 101.814 128.75C99.8028 129.165 97.9076 129.581 96.1121 130.711C94.5328 131.708 92.7374 130.944 90.9918 130.262C90.3434 130.778 89.6619 131.359 88.947 131.875C87.2014 133.121 85.3229 133.42 83.4111 132.323C82.4468 131.758 81.4494 131.625 80.3688 131.625C79.388 131.625 78.3905 131.542 77.4761 131.127C75.4479 130.229 74.2177 127.719 75.0323 125.392C75.7139 123.431 76.1794 121.669 75.5311 119.575C75.1321 118.312 75.5311 116.866 75.9467 115.553C76.8444 112.744 78.0081 110.018 79.4877 107.475C81.0005 104.882 82.3803 103.951 86.4699 102.505C86.5863 99.3139 83.3612 87.5461 81.2499 83.7233C80.5018 85.8009 80.535 87.8287 80.1859 89.7567C79.9033 91.236 79.7869 92.7485 79.5542 94.2444C78.8726 98.6656 76.2127 101.94 73.32 105.081C72.9044 105.53 72.3891 105.979 71.7407 105.763C70.9428 105.497 70.9594 104.716 70.9427 104.034C70.8596 99.8125 71.4581 95.7736 73.8686 92.1335C75.2485 90.0559 76.4787 87.8786 77.7754 85.751C79.8368 82.3437 79.6207 78.8034 78.058 75.3296C74.1679 66.6866 69.2138 58.6586 63.4784 51.096C61.7661 48.8355 59.5217 47.1402 57.3772 45.3451C52.6226 41.3561 47.6685 37.5997 43.3129 33.1618C41.7336 31.5496 40.254 29.8542 38.5417 28.2752C40.8193 35.1563 42.5648 42.104 42.9638 49.3674C43.3628 56.7139 41.6505 63.7281 39.9215 70.7754C40.7361 71.0413 41.4676 70.7256 42.1991 70.6923C45.6237 70.5261 48.6161 72.5373 49.6967 75.7784C50.3617 77.7895 50.744 79.8838 50.8438 82.0113C50.9103 83.2413 51.3758 84.1388 52.2735 84.9532C52.9883 85.6014 53.67 86.3494 54.2352 87.1472C56.9949 90.9867 55.8145 95.5575 51.5088 97.552C49.0816 98.6822 46.5214 99.2806 43.8116 99.1477C43.1467 99.1144 42.4651 99.131 41.6837 99.1144C41.8001 100.112 42.4817 100.66 42.8973 101.308C44.0943 103.153 45.2913 104.982 46.1391 107.026C47.7683 110.998 45.923 114.356 41.6837 115.104C40.8026 115.254 39.8716 115.353 38.9739 115.254C37.9266 115.154 37.245 115.503 36.6465 116.301C34.9176 118.661 32.507 118.894 29.9136 118.229C24.9097 116.949 20.1052 111.381 19.4402 106.212C19.3737 105.696 19.274 105.181 19.1576 104.533C16.6806 105.846 14.1038 106.428 11.4439 106.261C6.68928 105.946 2.81582 104.084 0.721141 99.5133C-0.409321 97.0534 -0.259739 94.6267 1.51908 92.4992C2.45005 91.4022 2.81581 90.3883 2.11758 89.0088C1.4526 87.6791 1.98462 86.5156 2.91557 85.4851C4.11253 84.172 5.69183 83.7232 7.35427 83.4407C9.99755 82.9919 12.6409 83.3244 15.2675 83.5737C15.9824 83.6402 16.7138 83.9393 17.4785 83.5072C17.0463 82.7592 16.2982 82.5099 15.6997 82.111C11.3109 79.1857 8.30189 75.3129 6.85556 70.177C5.40924 65.0743 8.21873 60.6033 13.4721 59.9385C15.3839 59.6891 17.2458 60.0049 19.0745 60.5534C20.8034 61.0853 22.3828 61.0687 24.0951 60.2708C29.4315 57.8109 33.7539 60.9689 35.2667 65.4068C35.6491 66.537 35.9151 67.7171 36.2642 69.0302C37.1287 68.1825 37.3614 67.1354 37.5609 66.1547C39.0737 58.4093 40.2208 50.5974 39.0238 42.7356C37.6107 33.5109 34.4854 24.8845 28.7499 17.3551C26.0401 13.8148 23.4301 10.2081 21.2025 6.31872C20.6372 5.32146 20.1884 4.29095 19.7395 3.26044C19.4403 2.56236 19.5566 1.93074 19.8891 1.29914C20.2382 0.601052 20.6538 -0.0471694 21.5681 0.00269397C22.3994 0.0525573 22.6321 0.750647 22.8981 1.38225C24.6437 5.52091 27.0376 9.26066 29.7973 12.7843C34.5186 18.8178 39.589 24.5022 46.0393 28.8071C49.5471 31.1507 53.3208 32.7629 57.4936 33.5275C58.8401 33.7768 60.0205 33.7436 61.2008 33.0787C69.0808 28.6076 77.792 26.5965 86.5365 24.7682C90.5596 23.9205 94.6658 24.0535 98.7388 24.2031C106.004 24.469 113.202 25.3333 120.334 26.7461C121.365 26.9455 122.412 27.2115 123.376 27.627C124.706 28.2087 124.806 29.3888 123.675 30.2698C123.326 30.5523 122.911 30.7684 122.478 30.918C116.161 33.2449 109.944 35.8046 103.377 37.4002C96.8436 38.9959 90.2437 39.4446 83.5607 38.9127C75.9467 38.2977 68.3493 37.6662 60.752 36.9847C57.3439 36.6855 54.0357 35.9043 50.9103 34.4416C50.528 34.2588 50.1622 33.9596 49.6635 34.0926C49.5471 34.5746 49.9461 34.7574 50.2121 34.9735C57.6764 41.1399 64.8582 47.6555 72.7049 53.3399C76.8278 56.3151 81.2 58.8747 85.6221 61.3512C87.8831 62.6144 90.4931 62.2322 92.754 60.969C94.4663 60.0049 96.1786 58.9911 97.5418 57.545C100.684 54.1875 104.74 52.6917 109.063 51.6279C110.974 51.1625 112.87 50.6306 114.848 51.362C115.28 51.5115 115.729 51.578 115.978 52.2096C115.513 53.4063 114.233 53.8551 113.235 54.603C108.93 57.7777 104.192 60.0548 98.905 61.052C96.295 61.5507 93.9011 62.7142 91.3742 63.512C91.1248 63.5951 90.9087 63.8278 90.4432 64.1602C102.529 70.2435 115.33 72.9362 128.596 75.313C128.114 74.1661 127.466 73.6675 126.95 73.0857C125.022 70.9084 123.509 68.5149 122.828 65.6395C122.046 62.2986 122.379 59.3069 125.255 57.0298C126.668 55.8995 127.333 54.52 127.233 52.6916C127.183 51.8107 127.433 50.8966 127.632 50.0157C128.114 47.7552 129.511 46.2925 131.655 45.4781C135.545 43.9988 139.219 44.4476 142.727 46.6249C143.359 47.0238 143.991 47.4227 144.639 47.8217C144.672 47.8383 144.772 47.7884 144.921 47.7219C144.29 45.877 143.592 44.0653 143.06 42.1871C141.829 37.7659 141.597 33.3945 143.974 29.206C145.769 26.048 148.379 24.1033 152.003 23.5216C154.647 23.1061 156.941 23.8208 158.919 25.5992C159.484 26.0979 160.016 26.6463 160.482 27.2281C161.779 28.8237 163.474 29.7212 165.453 30.1866C166.334 30.3861 167.215 30.6022 168.079 30.9014C169.891 31.533 171.221 32.7463 171.953 34.5081C173.383 38.0152 173.998 41.6054 172.834 45.3451C172.169 47.5059 171.487 49.6666 170.556 51.6445C170.822 52.1099 171.138 51.9603 171.371 51.8606C175.128 50.2649 179.118 49.8827 183.124 49.6001C184.97 49.4672 186.749 49.7996 188.394 50.6639C191.154 52.1099 192.467 54.6031 191.719 57.6447C191.237 59.6227 191.536 61.0355 192.966 62.5314C195.443 65.1076 195.559 67.4179 193.847 70.5926C191.187 75.5124 186.898 77.5735 181.479 77.4904C177.904 77.4405 174.413 76.8089 171.038 75.5623C170.506 75.3628 169.991 74.9473 169.276 75.1634C169.309 75.8781 169.841 76.3435 170.174 76.892C171.77 79.4682 173.183 82.1276 174.031 85.0529C175.278 89.3412 172.967 92.8483 168.561 93.3635C167.265 93.5131 165.985 93.3968 164.721 93.2638C163.641 93.1474 162.859 93.4632 162.045 94.1281C158.287 97.2362 155.977 97.203 152.286 93.9785C147.881 90.1224 146.069 85.1859 146.351 79.4184C146.368 78.9696 146.567 78.5375 146.251 77.9391C144.938 78.4876 143.708 79.3685 142.212 79.568C139.585 79.917 137.091 79.5015 134.631 78.6538C133.916 78.4211 133.251 78.0887 132.453 78.0721C127.083 77.9225 121.747 77.3906 116.46 76.3601C116.095 76.2936 115.729 76.1274 115.313 76.4099C116.743 77.8227 118.422 78.82 120.301 79.4683C123.592 80.5985 126.867 81.8118 130.209 82.7094C133.534 83.6069 136.26 85.4186 138.82 87.5461C140.034 88.56 141.148 89.7069 142.278 90.8205C142.81 91.3357 143.359 91.8676 143.442 92.8482C141.63 93.3469 139.868 93.4632 138.105 93.0311C134.265 92.1003 130.608 90.6875 127.15 88.7428C126.585 88.427 126.103 87.8453 125.355 87.9118C125.072 88.4769 125.388 88.9423 125.554 89.4077C126.701 92.6322 126.834 96.0894 127.765 99.3638C127.981 100.095 127.965 100.926 127.05 101.292C126.319 101.591 125.704 101.325 125.255 100.71C121.88 96.1392 118.588 91.5352 117.009 85.9671C116.61 84.5709 116.444 83.1415 116.577 81.6955C116.677 80.6982 116.361 79.9835 115.463 79.435C114.499 78.8366 113.601 78.1053 112.969 77.1413C112.038 75.7119 110.742 75.0304 109.096 74.6814C101.033 72.9694 93.5187 69.828 86.3203 65.8556C85.7219 65.5232 85.1234 65.224 84.1758 64.7087C84.9405 66.537 85.8881 67.8002 87.1682 68.7809C98.3398 77.3906 108.614 87.0142 118.671 96.8539C124.191 102.256 128.979 108.323 133.75 114.406C134.415 115.254 135.495 116.218 134.515 117.381C133.617 118.428 132.503 117.58 131.589 117.198C113.368 109.503 98.6557 97.9011 89.7616 79.7841C86.9188 73.9999 83.6438 68.4983 79.5043 63.5286C77.2933 60.8692 74.7664 58.6586 71.4747 56.9965L71.5412 57.0131ZM161.463 58.642C161.463 58.642 161.612 58.6254 161.679 58.5755C161.878 58.4592 162.078 58.3594 162.244 58.2099C167.581 53.7554 170.207 47.8881 171.038 41.1233C171.155 40.1759 170.972 39.1454 170.723 38.2147C170.041 35.5719 168.761 33.4111 165.702 33.112C162.277 32.7629 159.634 31.2338 157.473 28.4913C155.411 25.8818 152.851 25.6491 150.009 27.3611C148.745 28.109 147.731 29.1229 147.049 30.4193C145.254 33.8101 144.705 37.3005 145.719 41.14C146.65 44.6803 148.13 47.9546 149.726 51.1957C151.089 53.9382 152.469 56.6973 154.747 58.9245C155.478 58.4093 156.143 57.9439 156.825 57.4619C156.409 54.4701 155.894 51.5282 156.16 48.6029C156.559 44.0487 157.39 41.489 158.47 40.4751C158.686 40.7244 158.703 41.0402 158.653 41.3228C157.722 46.0598 157.922 50.7304 158.836 55.4674C159.169 57.2126 159.9 58.1434 161.463 58.6254L161.463 58.642ZM136.46 59.3733C137.74 58.7583 138.471 59.3235 139.203 59.5728C141.929 60.4703 144.606 61.5673 147.432 62.1158C149.526 62.5314 151.654 62.764 154.048 61.8997C150.358 58.0769 147.498 53.8551 143.392 50.8301C142.478 50.1652 141.497 49.5835 140.499 49.0516C139.003 48.2704 137.391 47.8882 135.695 47.8882C132.553 47.9214 131.289 48.9851 130.774 52.0434C130.691 52.5587 130.558 53.0906 130.558 53.6058C130.558 56.1489 129.527 58.1267 127.532 59.6392C125.936 60.8526 125.438 62.4649 125.621 64.4428C126.086 69.479 131.522 74.8642 137.008 75.5789C139.336 75.8781 141.73 76.0776 143.858 74.7811C146.966 72.8863 149.709 70.5095 152.353 68.0163C153.55 66.8861 153.583 65.7725 153.034 64.3929C147.216 63.8278 141.829 62.1989 136.476 59.3401L136.46 59.3733ZM163.441 64.7087C163.092 66.0883 162.676 67.3348 164.222 68.4817C169.492 72.3378 175.261 74.7312 181.878 74.698C185.834 74.6814 188.86 73.0193 190.722 69.4291C191.919 67.152 191.869 66.2046 189.99 64.4261C187.979 62.4981 187.297 60.3706 188.228 57.678C189.026 55.3676 188.295 54.1543 185.884 53.4728C185.236 53.29 184.554 53.2069 183.872 53.1737C180.647 53.0241 177.572 53.8052 174.496 54.603C170.24 55.7 166.716 58.2431 163.092 60.57C162.976 60.6365 162.942 60.8194 162.843 60.969C162.876 61.6338 162.976 62.282 163.424 62.6809C168.927 64.0605 174.363 63.3956 179.8 63.1795C177.821 64.4261 171.753 64.9414 163.408 64.7253L163.441 64.7087ZM26.1233 83.0418C25.7077 80.7315 25.558 78.4045 24.7601 76.1606C23.9953 73.9999 23.0477 71.889 22.5823 69.6285C23.1475 69.4956 23.3636 69.6618 23.5132 69.9444C25.6245 73.8004 27.021 77.9225 27.7691 82.1941C29.1822 82.6429 30.0134 82.2273 30.6118 80.9974C31.1106 79.9835 31.8587 79.1026 32.4738 78.1552C32.7564 77.723 33.172 77.2576 33.2219 76.7756C33.5544 73.3849 34.0032 69.9776 33.0556 66.6368C32.241 63.7114 30.2461 62.2155 27.5031 62.1657C26.3892 62.1491 25.425 62.5812 24.4941 63.0632C22.4991 64.0771 20.471 64.2101 18.3264 63.6283C17.0131 63.2627 15.6665 63.0134 14.3033 63.0466C10.8121 63.1131 9.04998 65.2406 9.61522 68.7144C9.68171 69.1632 9.78141 69.6119 9.93104 70.0441C11.1613 73.8836 13.1894 77.1745 16.398 79.6843C18.7919 81.5625 21.3853 83.0916 24.0951 84.5875C24.7601 84.0723 25.425 83.5736 26.1066 83.0584L26.1233 83.0418ZM154.796 69.4623C153.35 71.4402 152.003 73.2686 150.69 75.1135C149.975 76.1108 149.61 77.2909 149.443 78.4876C148.662 84.1388 150.557 88.7428 155.013 92.2665C156.991 93.8289 157.972 93.8123 159.75 92.0837C161.313 90.5878 163.075 90.0725 165.137 90.3551C166.201 90.5047 167.248 90.5047 168.295 90.3717C170.523 90.0725 171.454 88.8758 171.205 86.632C171.122 85.9671 170.939 85.3189 170.689 84.6706C168.794 80.0333 166.234 75.7617 163.242 71.756C162.693 71.0247 162.078 70.3765 161.297 69.9776C159.052 70.5261 158.47 72.022 158.736 74.083C158.836 74.8974 158.77 75.7451 158.82 76.5596C158.969 79.1525 159.834 81.5791 160.632 84.0224C160.881 84.8036 161.363 85.6014 160.748 86.8813C157.872 81.6124 156.625 76.3933 156.891 70.7255C156.276 70.3433 155.644 69.961 154.78 69.4291L154.796 69.4623ZM28.6003 94.1945C27.4366 93.5297 26.8381 93.8289 26.4059 94.6101C25.4915 96.1725 24.5107 97.7016 23.6795 99.3139C19.7727 106.827 24.6437 112.278 30.2461 114.871C31.6924 115.553 33.2219 115.42 34.2526 113.857C35.2833 112.312 36.7795 111.813 38.5583 111.83C39.5392 111.83 40.5366 111.813 41.4842 111.597C43.13 111.215 43.6454 110.151 43.1467 108.539C42.7809 107.375 42.1825 106.328 41.5674 105.281C39.1402 101.142 36.2309 97.4024 32.7232 94.1281C32.3574 93.779 32.1912 93.1807 31.5428 93.0975C30.9776 93.2305 30.429 93.43 30.1298 93.9785C30.0633 96.6877 31.0607 99.2142 31.2103 101.857C31.36 104.417 32.5237 106.793 32.8728 109.403C32.0914 109.353 32.0582 108.921 31.9252 108.588C30.0134 103.951 28.6502 99.1809 28.6003 94.1779L28.6003 94.1945ZM33.6874 90.754C35.2999 92.1501 37.0123 93.0976 38.6913 94.1115C40.0047 94.8927 41.3513 95.5409 42.914 95.6406C45.5074 95.8068 48.0675 95.6572 50.4448 94.5104C52.9717 93.297 53.4705 90.9036 51.6917 88.7595C51.0599 88.0115 50.395 87.2636 49.6136 86.6818C48.3668 85.7344 47.8514 84.4878 47.7184 82.9919C47.5854 81.496 47.336 80.0001 47.1864 78.4876C46.9869 76.5263 46.1723 74.9971 44.2605 74.2824C42.2324 73.5179 40.3704 73.95 38.7911 75.3961C36.314 77.6399 34.4687 80.399 32.4405 82.9753C34.5518 85.4186 35.1005 85.8009 37.8103 85.8508C39.6888 85.884 41.5674 85.618 43.4626 85.5017C44.2273 85.4518 45.0419 85.1526 45.9562 85.9671C42.2323 87.2303 38.5417 87.197 34.8345 87.5295C34.768 88.7262 34.369 89.6902 33.704 90.754L33.6874 90.754ZM23.1641 87.9949C22.8815 87.5793 22.3828 87.5793 21.9672 87.4962C17.8111 86.6319 13.605 86.2164 9.36581 86.2164C8.38498 86.2164 7.38754 86.3162 6.43995 86.5322C4.69438 86.9311 4.32861 87.4796 4.69435 89.2249C5.02684 90.8039 4.77751 92.1501 3.74679 93.4466C2.00123 95.6406 2.20068 98.1005 4.11248 100.178C7.15477 103.469 15.2509 105.397 19.3903 99.8624C20.9364 97.8013 22.3994 95.7071 23.746 93.5131C24.4276 92.3828 24.3777 91.585 23.2971 90.8703C14.004 93.9619 11.2943 94.3774 8.73413 92.9313C11.4107 92.4659 13.9874 92.4493 16.4312 91.6017C20.5208 90.1722 22.4493 89.175 23.1475 87.9949L23.1641 87.9949ZM84.7909 105.846C83.461 106.245 82.6629 106.876 82.0478 107.741C79.8368 110.799 78.4403 114.206 77.9915 117.93C77.7587 119.858 78.324 121.686 79.8202 123.082C81.466 124.628 82.6962 124.694 84.342 123.132C85.4891 122.052 86.7526 121.653 88.2488 121.752C89.3792 121.819 90.5263 121.952 91.6402 121.852C93.5852 121.686 94.433 120.738 94.6325 118.81C94.6824 118.279 94.7489 117.73 94.6325 117.231C93.8678 113.325 92.3882 109.719 89.9444 106.561C89.346 105.779 88.5979 105.148 87.3345 105.248C86.0544 107.225 85.7052 109.519 85.3727 111.83C85.0236 114.19 85.6886 116.583 84.9571 118.927C83.7103 114.672 83.2781 110.4 84.7909 105.863L84.7909 105.846ZM69.9619 34.3752C86.0045 38.5471 101.066 37.2839 116.078 30.2199C100.318 29.6714 85.1566 30.2033 69.9619 34.3752ZM92.8038 106.876C93.1197 107.392 93.4356 107.907 93.7348 108.422C95.8129 111.913 97.4255 115.519 96.8768 119.741C96.7272 120.938 97.4753 121.703 98.7055 121.902C99.7363 122.068 100.634 121.752 101.465 121.154C102.762 120.207 104.158 119.542 105.771 119.259C107.533 118.943 108.181 118.029 108.231 116.267C108.281 114.339 107.566 112.71 106.22 111.397C103.66 108.904 100.8 106.81 97.7413 104.998C96.4446 104.234 94.9817 104.001 93.3857 103.951C93.7514 104.649 94.3001 104.932 94.7656 105.331C97.5917 107.757 100.052 110.5 101.848 113.791C102.147 114.339 102.596 114.871 101.997 115.785C99.3871 112.179 96.827 108.771 92.8205 106.893L92.8038 106.876ZM124.207 110.384C124.324 110.267 124.44 110.151 124.557 110.034C122.944 108.688 121.315 107.375 119.702 106.012C112.82 100.211 106.303 94.0284 100.601 87.0475C97.7912 83.5903 95.0814 80.05 92.1721 76.6925C91.69 76.1274 91.3409 75.4127 90.2104 75.0304C97.3589 91.1363 108.797 102.671 124.191 110.384L124.207 110.384ZM115.662 29.1063C107.167 26.2973 86.7193 25.3499 74.3341 31.4498C81.3164 30.17 87.9828 29.0897 94.7489 28.7739C101.565 28.4581 108.398 29.0232 115.662 29.1063ZM123.526 107.192C120.085 101.674 103.277 85.1028 99.8028 83.6734C107.134 92.4327 114.715 100.444 123.526 107.192ZM88.1823 124.545C85.3894 124.428 84.4418 126.523 83.3612 128.318C82.53 127.919 83.1617 127.005 82.3305 126.672C80.4852 126.739 78.9557 125.575 77.2766 124.511C76.7779 125.692 76.994 126.739 77.0938 127.769C77.1935 128.733 77.792 129.282 78.7396 129.332C80.9174 129.431 83.0121 129.697 85.1234 130.512C87.2845 131.343 89.1132 129.498 88.7974 127.204C88.6644 126.323 88.415 125.459 88.1989 124.561L88.1823 124.545ZM102.995 122.883C101.083 123.897 99.2874 124.246 97.5585 123.547C96.8769 124.046 97.6083 124.91 96.7937 125.176C96.3282 124.744 96.3947 123.88 95.5635 123.664C95.1479 125.991 93.419 126.739 91.3077 126.888C91.9893 128.899 93.7847 129.564 95.5469 128.334C97.1428 127.221 98.8219 126.606 100.717 126.29C102.662 125.974 102.961 125.392 102.995 122.866L102.995 122.883ZM124.739 96.3886C124.008 90.9036 122.512 86.2164 119.07 82.2938C119.27 87.5129 120.583 92.2831 124.739 96.3886ZM73.0707 102.289C76.8777 98.3831 77.6922 93.3635 78.457 88.3273C75.3814 92.4992 73.2203 97.0035 73.0707 102.289ZM125.571 84.3216C129.062 87.4464 132.952 89.8398 138.155 90.4714C134.265 87.1472 130.159 85.269 125.571 84.3216ZM28.8164 90.272C30.7282 90.0559 31.7756 89.1251 31.626 87.729C31.493 86.3494 30.4788 85.6014 28.8995 85.7344C27.3036 85.8674 26.0401 87.3134 26.2563 88.776C26.4391 89.9728 27.2371 90.4548 28.7998 90.272L28.8164 90.272ZM159.75 64.3098C159.651 63.3291 159.568 62.3485 158.886 61.5507C158.171 60.7197 157.423 60.7861 156.924 61.7502C156.309 62.9801 155.993 64.3098 156.359 65.6894C156.608 66.6368 157.672 67.3348 158.587 67.2517C159.468 67.152 159.883 66.4872 159.85 65.2073C159.85 64.9081 159.784 64.609 159.75 64.3098ZM100.75 58.509C104.241 57.8109 107.433 56.448 110.21 54.1709C106.586 54.5532 103.51 56.1654 100.75 58.509ZM93.2527 124.096C92.1888 124.129 91.4739 124.046 90.7424 124.478C91.5404 124.844 92.3772 124.716 93.2527 124.096Z" fill="#E0E0E2"/>
</svg>
