<svg width="87" height="177" viewBox="0 0 87 177" fill="none" xmlns="http://www.w3.org/2000/svg">
<path d="M26.2202 100.434C26.4129 100.594 26.4611 100.658 26.5093 100.674C29.4655 101.138 29.9154 102.355 28.0196 104.756C27.6983 105.156 27.3448 105.54 27.0074 105.924C27.5215 106.724 28.4694 106.596 29.1442 107.028C30.3492 107.813 30.9115 108.725 30.6384 109.717C30.3813 110.662 29.3531 111.11 27.891 111.014C27.0877 110.966 26.3808 110.358 25.4972 110.614C25.706 111.702 26.413 112.614 26.5736 113.719C26.7664 115.063 26.3808 116.151 25.4811 116.568C24.5653 116.984 23.2961 116.632 22.4928 115.703C21.818 114.903 21.4003 113.959 21.0307 112.998C20.1953 113.703 19.392 114.407 18.5565 115.063C17.3516 116.007 16.1787 116.135 15.3112 115.479C14.4436 114.839 14.1544 113.559 14.3793 112.278C14.6524 110.79 15.7771 109.909 16.8535 108.853C15.279 108.373 13.8973 108.053 12.853 107.044C11.8087 106.036 11.5356 105.06 12.0658 104.099C12.5799 103.139 13.6885 102.579 14.8774 102.771C15.6646 102.899 16.4519 103.155 17.4158 103.395C17.4158 102.595 16.9178 102.131 16.6929 101.587C16.0341 100.082 15.5843 98.5295 15.761 96.8809C15.9217 95.3124 17.223 94.6402 18.6529 95.3284C19.4884 95.7286 20.0828 96.3688 20.5006 97.1851C21.2878 98.7536 22.059 100.338 22.8944 102.051C28.0356 92.8156 31.9719 83.2603 34.173 72.9688C34.0444 72.6647 33.6749 72.5687 33.3215 72.4726C29.321 71.2882 26.6218 68.5673 24.5493 65.1101C24.4368 64.9181 24.3243 64.726 24.244 64.5179C23.5853 62.9174 24.003 62.0051 25.7542 61.637C27.5537 61.2528 29.4013 61.0768 31.2007 60.6926C32.9359 60.3245 34.6228 59.7963 36.1812 58.884C36.9846 58.4039 37.338 57.7796 37.5951 56.8353C38.3663 54.0984 37.5951 51.9697 35.9242 49.7289C32.4539 45.0393 29.0318 40.3337 25.224 35.9002C24.7581 35.356 24.2279 34.8439 23.6335 34.2196C23.3122 35.228 23.8102 35.9482 24.0191 36.6845C24.7581 39.3254 25.2562 41.9983 25.0634 44.7512C24.7421 49.2327 21.7377 51.4575 17.448 50.1771C13.6403 49.0407 10.2824 47.04 7.61541 44.015C7.27801 43.6308 6.95669 43.2147 6.69963 42.7665C5.49466 40.7018 6.24977 39.2934 8.62758 39.1813C10.2503 39.1013 11.889 39.1493 13.5117 39.0053C17.2552 38.6852 19.3117 36.4124 19.649 32.6831C19.8258 30.7304 19.3759 29.2259 17.946 27.7694C12.7245 22.4396 7.67967 16.9338 1.87975 12.1961C1.31743 11.732 0.819366 11.1718 0.305252 10.6436C0.112449 10.4355 -0.0964055 10.1955 0.0481945 9.6993C0.835441 9.12311 1.4781 9.87536 2.07255 10.2435C5.60713 12.4362 8.69185 15.2052 11.6641 18.1022C13.7849 20.1669 15.8253 22.3116 17.8978 24.4083C18.4119 24.9205 18.9421 25.4326 19.4723 25.9608C21.5931 24.8084 22.1393 23.0158 21.8823 20.8871C21.5609 18.1182 21.1753 15.3492 20.854 12.5643C20.7255 11.3479 20.2756 9.98739 21.6252 9.1391C22.8141 8.37084 23.9548 9.04307 24.9349 9.65128C29.9957 12.8043 32.6788 17.3819 32.968 23.3359C33.0323 24.7604 32.3896 25.8648 31.3453 26.8091C29.2728 28.6818 27.2484 29.546 23.7138 29.9462C23.6817 30.0102 23.6496 30.0742 23.6335 30.1382C23.6335 30.2023 23.6014 30.2983 23.6335 30.3463C28.6944 36.0923 33.5624 41.9983 38.3502 48.2564C38.3823 47.7122 38.4305 47.168 38.4305 46.6239C38.5591 34.3957 37.4666 22.3596 33.2411 10.7557C32.1808 7.84267 30.8151 5.05772 29.3049 2.3528C28.839 1.50451 28.357 0.62421 29.6262 -2.50789e-06C30.5902 0.240079 30.9597 0.99234 31.3614 1.68057C34.8317 7.74664 37.0167 14.3089 38.3341 21.1272C40.1496 30.5704 40.9529 40.0936 40.4227 49.7129C40.2942 51.9697 40.3263 51.9697 41.8848 53.9383C44.5839 53.5862 46.1905 51.8576 47.1384 49.4888C47.8454 47.7122 48.2952 45.8396 48.8254 44.015C49.1949 42.7505 49.5645 41.4701 50.2392 40.3177C51.2514 38.6211 52.5367 38.173 54.3683 38.8612C55.5732 39.3254 56.6015 40.0776 57.3566 41.086C60.2325 44.8632 61.3732 49.0727 60.2967 53.7623C59.6701 56.5312 57.9189 58.2438 55.1555 58.9641C52.8902 59.5563 50.6409 59.6683 48.3434 59.2201C47.267 59.0121 46.1905 58.788 44.6642 58.4679C48.8897 65.1581 52.4243 71.8004 55.6857 78.9228C56.1195 77.8185 55.9106 77.0982 55.8464 76.394C55.766 75.5937 55.7339 74.7774 55.75 73.9611C55.766 72.7607 55.7821 71.4163 57.1959 71.0482C58.5455 70.696 59.3328 71.8164 60.0718 72.7447C61.4374 74.4413 61.9676 76.506 62.4175 78.8268C63.3172 78.1866 63.5261 77.2903 63.992 76.6341C65.1487 75.0175 66.177 74.4413 67.2052 74.9055C68.3459 75.4176 69.0689 77.1462 68.6994 78.7308C68.5227 79.515 68.1853 80.2513 67.9282 81.0356C68.603 81.4197 69.1974 80.8915 69.8562 80.8755C70.9647 80.8755 72.0894 80.7955 73.0855 81.4037C74.9331 82.5561 75.0616 84.2046 73.3104 85.4691C72.3143 86.1893 71.1897 86.7495 70.0811 87.4217C71.0611 88.11 72.234 88.158 73.214 88.6542C74.676 89.3904 76.122 90.1266 76.9414 91.6472C77.9857 93.5838 77.1985 95.1844 74.9974 95.4725C73.9209 95.6165 72.8445 95.6165 71.5913 95.6805C72.3304 96.7849 73.0212 97.7292 73.5996 98.7216C74.1298 99.6499 74.4351 100.706 73.5996 101.603C72.8445 102.403 71.8484 102.195 70.9005 101.843C68.7797 101.074 66.9803 99.8099 65.2291 98.4495C64.6507 98.0013 64.249 97.3291 63.5261 97.073C63.0441 97.6812 63.5261 98.1934 63.6867 98.7056C65.2612 103.219 66.5947 107.813 67.7515 112.47C68.4745 115.399 71.3664 116.92 74.2262 115.863C76.5397 115.015 78.6123 113.767 80.3956 112.022C81.2793 111.158 82.1951 110.133 83.6571 110.694C85.1513 111.254 85.4244 112.678 85.5047 113.975C85.6814 116.712 84.8942 119.225 83.1912 121.401C82.5485 122.234 81.6167 122.778 80.6045 123.034C77.1985 123.882 73.8567 123.93 70.8201 121.785C70.5309 121.577 70.2418 121.305 69.8401 121.353C69.583 121.673 69.6312 122.042 69.6955 122.394C70.547 127.323 71.4949 132.253 71.5431 137.279C71.5431 138.159 71.9769 138.559 72.7802 138.847C76.0095 140.048 79.03 139.503 81.9701 137.935C82.6771 137.551 83.3358 137.023 84.0909 136.734C85.7457 136.094 86.9025 136.831 86.9828 138.591C87.031 139.76 86.9828 140.96 86.774 142.112C86.3402 144.561 84.2033 146.226 81.5042 146.306C78.4034 146.402 75.7525 145.169 73.2301 143.521C72.9248 143.313 72.6356 143.073 72.3464 142.865C72.2982 142.833 72.2018 142.849 71.8966 142.817C71.9287 144.625 71.9448 146.402 72.009 148.194C72.0733 149.891 72.4268 151.684 71.8484 153.236C71.4628 154.26 71.2861 155.093 71.6235 156.181C72.5071 155.813 72.491 154.885 72.7963 154.244C73.5675 152.564 74.2905 150.867 75.624 149.539C76.2987 148.867 77.0378 148.162 78.1464 148.627C79.1746 149.059 79.4477 150.003 79.5441 150.979C79.6727 152.26 79.1746 153.428 78.7569 154.613C77.9696 156.869 76.5076 158.726 74.9331 160.839C77.9375 160.519 80.6045 160.679 83.143 161.847C84.1712 162.327 85.1031 162.871 85.7939 163.784C87.3523 165.848 86.549 168.041 84.0427 168.729C82.7253 169.081 81.4078 168.697 80.0904 168.681C79.9137 169.546 80.6206 170.042 80.8616 170.698C81.2632 171.818 81.6327 172.923 81.3596 174.139C80.8937 176.14 79.5441 176.78 77.7126 175.836C76.1059 175.02 74.8367 173.787 73.696 172.411C73.3907 172.027 73.2461 171.45 72.491 171.386C72.2661 172.427 72.2822 173.531 71.8644 174.555C71.3503 175.82 70.5952 176.78 69.2296 176.972C67.7836 177.18 66.916 176.188 66.193 175.116C65.3737 173.915 65.1327 172.539 65.3094 171.002C64.3615 171.114 64.1044 171.914 63.5742 172.347C62.4657 173.259 61.341 174.027 59.8147 173.995C57.6137 173.947 56.4408 172.347 57.0995 170.25C57.5976 168.649 58.5294 167.321 60.618 165.368C59.9754 164.84 59.2042 165.032 58.5294 164.984C57.3245 164.888 56.1677 164.664 55.1394 164.04C52.9866 162.727 53.0669 160.102 55.2358 158.87C56.4248 158.198 57.7583 158.102 59.0757 157.846C59.2363 157.109 58.5937 156.837 58.2563 156.405C57.5815 155.525 56.9067 154.629 56.6175 153.556C56.3605 152.612 56.3284 151.62 57.1317 150.867C57.935 150.099 58.8829 149.891 59.9915 150.243C61.1482 150.611 62.1443 151.203 63.0923 151.94C63.6224 152.34 64.1366 152.772 64.8917 153.38C64.5543 152.02 64.249 150.931 64.0241 149.827C63.6706 148.082 64.0241 146.866 65.0041 146.514C66.418 145.986 67.2374 147.026 67.9925 147.906C68.7958 148.835 69.4063 149.923 70.4185 151.379C70.049 147.714 70.049 144.529 69.5027 141.152C68.603 142.032 67.88 142.753 67.141 143.457C65.8396 144.721 64.249 145.505 62.5299 146.002C56.971 147.554 51.4121 142.608 52.4885 137.103C52.8902 135.086 53.6453 134.59 55.6054 135.246C57.0995 135.742 58.2724 136.815 59.4773 137.775C61.7909 139.599 64.2972 140.288 67.141 139.071C67.7515 138.815 68.4102 138.671 69.2617 138.415C68.7797 132.285 67.9443 126.219 66.675 119.657C65.6468 121.401 64.7632 122.666 63.5582 123.69C60.2807 126.491 56.7461 126.443 53.6614 123.45C51.8298 121.673 50.3999 119.657 49.7251 117.144C49.4681 116.183 49.4359 115.239 49.6127 114.295C49.8858 112.822 51.2193 112.15 52.6331 112.694C53.6132 113.062 54.4647 113.671 55.2198 114.391C56.6497 115.751 58.3366 115.959 60.1682 115.671C61.9837 115.383 63.5582 114.711 65.3576 113.479C64.5864 109.573 63.4297 105.732 62.064 101.827C61.1804 102.819 61.2928 104.035 60.7787 105.012C60.0397 106.404 59.4131 107.893 57.4851 107.813C56.1034 107.765 55.1234 106.42 54.7539 104.227C54.5611 103.043 54.6735 101.859 54.9788 100.722C55.1555 100.082 55.3323 99.4578 55.3644 98.5295C54.2076 99.1537 53.2436 99.6979 52.2315 100.21C50.5927 101.042 48.8736 101.314 47.0742 100.738C44.9534 100.082 44.2626 98.6415 45.1944 96.6729C46.2066 94.5602 47.3312 92.5115 49.3877 91.119C48.7611 90.4628 48.1185 90.6228 47.5722 90.4628C46.6404 90.2067 45.7246 89.8866 44.9695 89.2944C43.8931 88.4461 43.0415 87.3897 43.3147 85.9172C43.5557 84.6208 45.323 83.4364 46.8814 83.3883C47.4598 83.3723 48.0542 83.4364 48.8093 83.4844C48.5041 82.5081 47.8293 82.0279 47.3312 81.4197C46.6243 80.5554 45.9977 79.6591 45.7085 78.5707C45.1784 76.6501 46.1102 75.5457 48.1185 75.8178C48.6969 75.8978 49.2431 76.1539 49.8054 76.33C50.3517 76.49 50.7694 77.0182 51.4121 76.9382C51.3157 75.0815 46.5279 65.8304 43.5878 61.893C43.3629 62.6613 43.1219 63.3015 42.9773 63.9577C42.3025 66.9988 40.8565 69.5917 38.4787 71.6404C38.0289 72.0245 37.6111 72.3606 37.4987 73.0328C35.9884 82.0439 34.3015 91.039 33.7713 100.178C33.4821 105.044 33.6428 109.893 34.0926 114.759C34.3818 117.976 34.6549 121.209 34.9441 124.442C35.7153 124.442 35.6671 123.818 35.876 123.402C36.2937 122.538 36.7275 121.673 37.4505 121.017C38.1413 120.409 38.9125 119.913 39.8604 120.393C40.7441 120.825 41.0493 121.657 41.0975 122.602C41.1457 123.434 40.8083 124.186 40.487 124.938C40.2299 125.531 39.8926 126.091 39.5873 126.651C40.1978 127.339 41.0011 127.243 41.692 127.403C42.5596 127.611 43.4111 127.867 44.1822 128.316C45.323 128.988 45.821 129.996 45.6122 131.069C45.4194 132.045 44.4393 132.957 43.2665 133.133C42.6238 133.229 41.949 133.181 41.2903 133.197C41.1457 133.902 41.6759 134.302 41.8526 134.846C42.19 135.822 42.2382 136.751 41.3546 137.471C40.5191 138.143 39.6837 137.775 38.8482 137.407C37.8361 136.959 37.1774 136.03 36.3098 135.31C35.7957 136.03 35.9884 136.718 35.892 137.343C35.7314 138.447 35.4904 139.519 34.9763 140.512C33.9802 142.48 32.3093 142.608 31.04 140.784C29.8993 139.135 29.5619 137.279 29.7547 135.31C29.8351 134.446 29.9636 133.597 30.0761 132.669C28.6944 132.813 27.5215 133.357 26.2523 133.293C25.0634 133.245 24.0191 132.973 23.4889 131.821C23.0551 130.877 23.5531 129.692 24.6135 128.7C25.7221 127.675 27.152 127.243 28.4855 126.587C28.0517 125.515 27.3609 124.634 27.1681 123.498C27.0074 122.538 27.1038 121.689 27.875 121.113C28.7104 120.473 29.5619 120.841 30.3331 121.353C31.506 122.122 32.2771 123.338 33.5303 124.202C30.8633 111.606 31.1043 99.0097 32.727 86.3173C30.7348 91.215 28.6622 96.0167 26.2523 100.61L26.2202 100.434ZM45.7889 54.4025C49.8536 53.8903 52.4564 52.3858 53.2115 48.6245C53.4204 47.5522 53.7256 46.4798 53.9988 45.4235C54.1112 45.0073 54.2397 44.5271 54.9467 44.8152C54.9145 46.6239 54.6735 48.4165 54.4004 50.2411C53.9505 53.2821 52.1351 54.8827 49.4359 55.843C48.729 56.0991 47.8936 56.1151 47.0742 56.8673C49.5484 57.3955 51.7655 57.8917 54.0309 57.4435C56.2641 57.0114 57.8386 55.843 58.658 53.5382C59.8469 50.2731 58.2242 44.015 55.3001 41.5981C54.8985 41.278 54.4807 40.9419 54.0309 40.7339C52.9223 40.2057 52.1833 40.4298 51.7173 41.5821C51.2032 42.8786 50.8498 44.223 50.4642 45.5675C49.5645 48.6886 48.7129 51.8096 45.7728 54.4185L45.7889 54.4025ZM8.0974 40.9419C7.76001 42.0623 8.17772 42.6865 8.75611 43.1347C11.9051 45.6635 15.4076 47.5522 19.3438 48.4325C21.7216 48.9606 23.1354 47.6962 23.3925 45.2634C23.6496 42.8306 23.3925 40.4458 22.6534 37.8689C21.8662 40.0936 21.818 42.4624 19.6812 43.7429C17.8496 44.8312 14.6846 45.1033 13.1904 44.175C14.9898 43.5188 16.9178 43.4548 18.3959 42.3664C20.0668 41.15 20.2756 39.2133 20.5327 37.2767C17.3516 41.6942 12.6924 41.134 8.11346 40.9419L8.0974 40.9419ZM26.413 63.7977C28.5658 67.3669 31.2007 69.7677 34.9441 70.8401C35.9724 71.1282 36.8239 70.7601 37.6111 70.1198C39.9086 68.2312 41.5313 63.5576 40.9851 60.4045C40.23 62.2452 39.1856 63.8137 37.7557 65.1261C36.1973 66.5346 34.3336 66.7747 32.3735 66.5186C31.522 66.4066 31.0079 65.9744 31.4256 64.9501C32.9841 64.598 34.7192 65.3342 36.1331 64.2138C37.4344 63.1895 38.6394 62.0851 38.9607 60.2285C35.1691 62.6613 30.8633 62.7573 26.429 63.7977L26.413 63.7977ZM26.5093 14.645C27.7786 16.4376 27.9874 18.5663 28.5016 20.583C29.0639 22.7917 28.116 24.8084 26.9271 26.8891C30.5099 25.6887 31.7309 24.1362 31.1686 21.4153C30.4456 17.8621 28.8229 14.757 25.9631 12.4202C25.0152 11.652 24.0191 10.9477 22.5571 10.7557C22.8944 13.7647 23.1997 16.6136 23.5371 19.4466C23.8584 22.1355 23.7942 24.7124 21.5449 26.8571C24.4207 26.601 26.4933 24.7604 26.8307 22.2636C26.9753 21.1752 26.8949 20.0708 26.7503 18.9664C26.5576 17.558 26.0113 16.1655 26.4933 14.645L26.5093 14.645ZM51.4603 114.263C51.0747 115.271 51.1711 116.167 51.4603 117.096C51.9744 118.68 52.9384 119.961 54.0469 121.161C57.6619 125.131 60.6502 124.506 63.7028 120.569C64.0402 120.121 64.6668 119.657 64.2812 118.872C59.8629 122.074 55.2358 121.689 53.2597 117.976C53.324 117.928 53.4043 117.832 53.4364 117.848C54.4486 118.264 55.4608 118.712 56.473 119.129C58.5294 119.977 60.7145 119.273 62.305 117.192C60.3128 117.4 58.433 117.688 56.5372 117.064C54.6896 116.456 53.5328 114.695 51.4442 114.247L51.4603 114.263ZM70.5309 119.353C72.9409 122.234 78.6284 123.05 81.215 121.129C81.3275 121.049 81.456 120.953 81.5363 120.825C83.1912 118.392 84.3158 115.831 83.6732 112.79C83.625 112.534 83.4804 112.214 82.7092 112.118C80.1225 114.855 76.7165 116.84 72.7481 118.152C73.1016 118.424 73.2622 118.616 73.455 118.664C76.2184 119.449 78.5159 118.488 80.6045 116.776C81.2311 116.264 81.6649 115.431 82.8377 115.415C82.5485 116.744 81.7613 117.512 80.974 118.248C79.7209 119.433 78.1946 120.105 76.5558 120.665C74.3547 121.433 72.6356 120.089 70.4988 119.337L70.5309 119.353ZM46.5119 98.0493C48.0703 99.2337 49.693 98.8496 51.2514 98.0653C53.5168 96.929 55.3965 95.3284 56.8585 93.1837C56.3444 92.4635 55.8464 91.7592 55.3965 91.119C51.0104 91.5351 47.6526 94.16 46.5119 98.0493ZM63.3654 89.5665C63.028 90.6228 63.5261 91.0229 64.3133 91.3431C66.418 92.2234 68.5227 93.1197 70.7559 93.5998C72.3143 93.9359 73.9209 94.032 75.5597 93.7279C75.7525 91.9513 74.5154 91.3591 73.5032 90.7829C70.3542 89.0223 67.0767 87.8059 63.3654 89.5665ZM54.4968 136.494C53.9505 137.807 53.7685 138.815 53.9505 139.519C54.9949 143.681 60.9072 145.794 64.4258 143.265C60.5699 143.905 57.6137 142.881 55.3804 139.984C58.0796 140.768 60.3449 142.929 63.6224 141.408C59.6701 140.976 57.8225 137.439 54.4968 136.494ZM72.8124 164.296C72.0894 164.808 71.7359 165.192 72.0733 166.008C73.3265 169.049 74.9331 171.818 77.7126 173.739C78.1624 174.043 78.6123 174.539 79.512 174.171C79.3031 169.498 76.0095 166.937 72.7963 164.296L72.8124 164.296ZM66.5947 161.671C63.3654 160.118 60.3449 159.222 57.0192 159.958C56.8103 160.006 56.5854 160.038 56.3766 160.118C55.75 160.375 55.1073 160.663 55.1394 161.479C55.1716 162.263 55.7821 162.583 56.4087 162.823C56.8103 162.967 57.2602 163.063 57.694 163.095C59.6059 163.24 61.5178 163.304 63.4136 163.015C64.4258 162.855 65.4379 162.695 66.5786 161.687L66.5947 161.671ZM74.1619 162.839C75.9131 164.584 77.584 165.768 79.4799 166.601C80.7652 167.161 82.1147 167.561 83.5446 167.209C84.8781 166.873 85.1513 166.04 84.2837 164.968C83.7535 164.312 83.0305 163.96 82.2915 163.624C79.8012 162.519 77.1824 162.503 74.1619 162.855L74.1619 162.839ZM47.1063 77.3863C48.0864 81.5957 52.2475 85.421 55.509 85.245C54.4325 81.3717 50.6409 77.7704 47.1063 77.3863ZM62.3371 92.3514C62.9316 95.5365 68.5548 99.8259 72.2018 99.922C70.2257 95.6325 66.5144 93.8239 62.3371 92.3514ZM55.991 88.5101C53.0348 86.7175 50.3838 85.5811 47.4598 85.1329C46.1423 84.9249 45.0177 85.4851 44.841 86.2373C44.6482 86.9736 45.339 87.8539 46.8332 88.238C49.693 89.0063 52.5849 88.8942 56.007 88.5101L55.991 88.5101ZM58.3848 151.892C58.3206 153.7 58.6258 154.389 60.0718 155.845C62.0962 157.894 64.4418 158.982 66.7072 158.918C64.49 154.917 61.2607 152.148 58.4009 151.892L58.3848 151.892ZM61.6624 86.7495C61.9998 87.5018 62.4014 87.7098 62.8673 87.5178C66.177 86.1253 69.9204 85.7732 72.9891 83.4524C71.7681 82.0919 70.4667 82.1719 69.1814 82.6041C66.4501 83.5324 63.992 84.9249 61.6784 86.7335L61.6624 86.7495ZM72.25 160.311C74.0334 159.654 76.122 157.301 77.343 154.34C77.9054 152.964 78.7408 151.556 77.7608 149.971C75.5918 151.091 72.5714 156.773 72.234 160.295L72.25 160.311ZM66.8518 164.312C62.064 165.784 59.14 168.617 59.0918 171.45C60.8108 171.754 61.1482 171.754 62.1122 170.842C64.1044 168.969 65.4861 166.649 66.8518 164.296L66.8518 164.312ZM78.6444 143.873C83.6732 145.377 85.7457 143.569 85.1031 137.951C82.42 139.471 79.9619 141.28 76.9093 141.728C78.1303 142.128 79.3031 142.192 80.5402 141.952C81.7291 141.728 82.5807 140.592 84.0748 140.688C82.902 143.105 80.6045 143.153 78.6605 143.873L78.6444 143.873ZM57.7743 73.3209C57.1799 77.4503 57.8225 81.3877 59.381 85.197C60.4735 81.0035 60.8591 76.9062 57.7743 73.3209ZM69.6634 158.918C70.5952 155.397 68.5227 149.843 65.6789 148.258C65.4058 150.787 67.8639 157.398 69.6634 158.918ZM57.4209 105.588C59.5577 101.843 59.6219 98.3855 58.915 94.8483C57.2763 98.0974 55.4286 101.314 57.4209 105.588ZM68.5066 165.912C66.7554 170.266 67.0124 172.939 69.2296 174.331C70.8041 171.914 70.4827 167.257 68.5066 165.912ZM32.968 139.711C34.5425 136.895 34.7031 133.341 33.45 131.037C31.2489 133.181 31.0079 136.702 32.968 139.711ZM17.6568 96.7209C16.982 99.89 18.3477 102.899 21.1432 104.596C21.4645 101.41 20.0346 98.0813 17.6568 96.7209ZM32.4699 128.988C29.2246 127.467 25.8506 128.316 24.7421 130.796C27.5055 131.309 29.7708 130.268 32.4699 128.988ZM43.5878 130.62C42.0454 128.412 39.6998 127.867 37.0006 129.052C39.1053 130.156 40.9529 131.245 43.5878 130.62ZM16.5964 114.039C18.5405 112.87 19.4884 111.03 20.2435 109.013C18.5405 109.765 17.0142 110.694 16.1305 112.374C15.8253 112.95 16.002 113.495 16.5964 114.039ZM19.4884 106.772C17.946 105.412 16.3555 105.236 14.9577 104.612C14.4436 104.371 13.7527 104.083 13.4796 104.916C13.2386 105.668 13.8973 105.972 14.4114 106.212C15.9056 106.932 17.4801 107.092 19.5045 106.772L19.4884 106.772ZM62.6906 83.0042C65.9199 80.7315 66.8839 79.0509 66.2895 76.8101C64.6346 78.5707 63.7349 80.6514 62.6906 83.0042ZM39.266 121.561C37.3059 123.098 36.374 124.746 35.8278 127.243C37.9164 125.675 39.5712 124.474 39.266 121.561ZM28.8068 122.058C28.598 124.682 29.4495 125.691 32.0683 126.027C31.4256 124.41 30.6705 122.954 28.8068 122.058ZM40.1978 135.71C39.2338 132.941 38.061 131.645 36.1812 131.117C36.7918 133.181 37.7397 134.83 40.1978 135.71ZM27.2645 102.419C24.8867 102.867 24.8224 102.947 24.4368 105.396C25.449 104.58 26.429 103.827 27.2645 102.419ZM24.2279 114.567C24.2119 112.726 23.6496 111.542 22.7016 110.502C22.8302 111.83 22.5892 113.254 24.2279 114.567ZM25.1116 108.053C26.3005 108.693 27.2805 109.061 28.4694 108.789C27.6447 107.829 26.5254 107.583 25.1116 108.053Z" fill="#E0E0E2"/>
</svg>
