<?xml version="1.0" encoding="UTF-8"?>
<svg id="Layer_1" data-name="Layer 1" xmlns="http://www.w3.org/2000/svg" viewBox="0 0 201.93 95.4">
  <defs>
    <style>
      .cls-1 {
        fill: #ebd7d5;
      }

      .cls-2 {
        fill: #fff;
      }
    </style>
  </defs>
  <path class="cls-1" d="M37.13,56.57c-.52-1.46-.79-3.47-.79-6.06v-8.7c0-2.61,.27-4.64,.79-6.07,.54-1.45,1.25-2.27,2.15-2.47l-.17-1.04h-10.97l-6.55,15.82-7.98-15.82H3.06l-.15,1.04c.89,.2,1.62,1.03,2.15,2.47,.56,1.43,.84,3.47,.84,6.07l-.22,10.1c-.1,2.17-.4,3.85-.93,5.05-.52,1.21-1.18,1.88-2,2.07l.15,1.08c.37-.07,.91-.12,1.62-.13,.71-.02,1.46-.02,2.24-.02s1.53,0,2.22,.02c.69,.02,1.21,.07,1.55,.13l.15-1.08c-.82-.19-1.5-.89-2.04-2.14-.52-1.26-.82-3.03-.89-5.28v-1.04l-.22-9.78,7.84,15.82h4.58l7.27-16.39v10.3c0,2.59-.27,4.59-.82,6.06-.56,1.46-1.26,2.27-2.15,2.46l.15,1.08c.67-.07,1.7-.13,3.06-.19,1.35-.05,2.79-.07,4.31-.07s2.98,.02,4.32,.07c1.33,.05,2.32,.12,2.98,.19l.22-1.08c-.91-.19-1.62-.99-2.15-2.46Z"/>
  <path class="cls-1" d="M63.56,43.81c-.57-1.46-1.4-2.76-2.47-3.89-1.08-1.11-2.42-2-4.02-2.68-1.6-.67-3.43-1.01-5.54-1.01s-3.94,.34-5.54,1.01c-1.6,.67-2.91,1.56-3.97,2.68-1.04,1.13-1.85,2.42-2.39,3.89-.56,1.48-.82,3.03-.82,4.64-.03,1.62,.2,3.16,.69,4.64,.5,1.46,1.28,2.78,2.36,3.9,1.06,1.14,2.39,2.04,3.99,2.71,1.6,.67,3.5,1.01,5.69,1.01s4.07-.34,5.69-1.01c1.63-.67,2.99-1.56,4.07-2.71,1.09-1.13,1.9-2.44,2.42-3.9,.54-1.48,.79-3.03,.76-4.64-.03-1.62-.34-3.16-.91-4.64Zm-8.97,9.79c-.25,1.58-.64,2.89-1.16,3.94-.5,1.06-1.14,1.58-1.9,1.58s-1.38-.52-1.9-1.58c-.52-1.04-.91-2.36-1.16-3.94-.25-1.58-.39-3.3-.39-5.15s.13-3.57,.39-5.15c.25-1.58,.64-2.89,1.16-3.94,.52-1.06,1.14-1.58,1.9-1.58s1.4,.52,1.9,1.58c.52,1.04,.91,2.36,1.16,3.94,.27,1.58,.39,3.3,.39,5.15s-.12,3.57-.39,5.15Z"/>
  <path class="cls-1" d="M90.28,40.01c-.39-.82-.87-1.51-1.5-2.07-.62-.54-1.35-.96-2.17-1.26-.82-.29-1.68-.44-2.57-.44-1.51,0-3.01,.45-4.51,1.36-1.48,.93-2.62,2.36-3.42,4.31v-5.15l-1.19-.15c-1.06,.24-2.02,.45-2.88,.67-.86,.2-1.68,.37-2.47,.5-.79,.13-1.62,.24-2.47,.32-.86,.07-1.83,.1-2.94,.1l-.15,1.08c.76,.13,1.43,.89,2.04,2.27,.61,1.36,.91,3.45,.91,6.23v2.94c0,2.57-.27,4.58-.81,6.02-.52,1.45-1.25,2.27-2.14,2.47l.15,.98c1.25-.07,2.47-.12,3.72-.15,1.23-.03,2.46-.05,3.65-.05s2.47,.02,3.68,.05c1.23,.03,2.46,.08,3.68,.15l.15-.98c-.86-.17-1.55-.94-2.09-2.29-.52-1.36-.81-3.25-.84-5.65v-4c0-1.21,.1-2.24,.3-3.1s.49-1.58,.82-2.14c.34-.57,.71-.98,1.11-1.25,.39-.25,.79-.39,1.21-.39,.54,0,1.03,.24,1.41,.71,.39,.45,.62,1.14,.69,2.04,.08,.82-.15,1.53-.66,2.15,.34,.99,.93,1.75,1.77,2.27s1.77,.77,2.76,.77c.66,0,1.3-.12,1.93-.37,.64-.24,1.19-.59,1.7-1.04,.49-.47,.89-1.04,1.21-1.73,.3-.69,.45-1.5,.45-2.42,0-1.03-.19-1.95-.56-2.78Z"/>
  <path class="cls-1" d="M100.95,55.78c.05,.27,.08,.52,.1,.79,.03,.59,0,1.14-.1,1.68,.2-.79,.24-1.63,0-2.47Zm-.94-2.2c-.66-.93-1.62-1.7-2.86-2.32-.07-.03-.13-.07-.22-.08-.02-.02-.03-.02-.05-.02-.08-.05-.17-.08-.25-.1,.17,.07,.35,.15,.56,.25t.03,.02c.19,.1,.37,.2,.56,.32,.17,.1,.34,.22,.5,.34,.05,.05,.12,.08,.17,.13,.19,.13,.39,.3,.56,.47,.19,.17,.37,.35,.54,.56,.22,.24,.42,.5,.61,.81,.13,.2,.25,.42,.37,.66,.03,.07,.07,.15,.1,.22,.12,.27,.24,.57,.32,.87-.15-.74-.47-1.45-.93-2.12Zm.24,6.43h.02c.1-.13,.17-.29,.24-.44,.08-.17,.15-.34,.2-.5-.13,.32-.29,.64-.45,.94Z"/>
  <path class="cls-1" d="M112.57,60.05v4.07h6.04v1.38h-6.04v15.43c0,2.04,.37,3.43,1.13,4.17s1.6,1.11,2.52,1.11c.64,0,1.26-.12,1.87-.34,.61-.22,1.09-.45,1.46-.72l.62,.61c-.93,1.6-2.09,2.74-3.45,3.42-1.36,.69-2.94,1.03-4.71,1.03-.82,0-1.77-.05-2.84-.17-1.06-.1-2.07-.4-3.01-.91s-1.75-1.25-2.42-2.25c-.66-.99-.99-2.37-.99-4.16v-17.21h-10.33v14.44c.08,2.62,.4,4.66,.94,6.11,.56,1.45,1.3,2.25,2.22,2.44l-.15,1.11c-1.35-.07-2.66-.13-3.97-.2-1.31-.05-2.64-.08-3.97-.08s-2.61,.03-3.92,.08c-1.31,.07-2.66,.13-4.02,.2l-.1-1.11c.96-.19,1.72-1.06,2.29-2.64,.57-1.56,.87-3.74,.87-6.51v-13.83h-3.33v-1.38h3.33v-4c0-1.46,.22-2.81,.66-4.02,.44-1.19,1.08-2.24,1.92-3.1,.82-.87,1.85-1.55,3.05-2,1.21-.47,2.54-.69,4.02-.69,1.14,0,2.19,.1,3.08,.32h.02s.02,0,.03,0c.1,.02,.34,.08,.66,.19,.08,.03,.17,.07,.27,.1,.1,.03,.2,.08,.32,.13,.17,.07,.35,.15,.56,.25t.03,.02c.19,.1,.37,.2,.56,.32,.17,.1,.34,.22,.5,.34,.05,.05,.12,.08,.17,.13,.19,.13,.39,.3,.56,.47,.19,.17,.37,.35,.54,.56,.22,.24,.42,.5,.61,.81,.13,.2,.25,.42,.37,.66,.03,.07,.07,.15,.1,.22,.12,.27,.24,.57,.32,.87,0,.02,.02,.05,.02,.07v.02c.05,.27,.08,.52,.1,.79,.03,.59,0,1.14-.1,1.68,0,.05-.02,.08-.03,.13-.05,.22-.13,.45-.22,.67-.13,.32-.29,.64-.45,.94-.1,.2-.22,.39-.34,.57-.37,.49-.81,.93-1.35,1.3-.87,.62-1.92,.93-3.13,.93-.93,0-1.78-.19-2.56-.56-.77-.37-1.41-.86-1.92-1.45-.5-.59-.81-1.28-.94-2.09-.13-.79-.03-1.6,.3-2.41,.56,.37,1.13,.56,1.72,.56,.64,0,1.21-.2,1.75-.61,.54-.42,.81-1.06,.81-1.95,0-.62-.24-1.18-.72-1.63-.47-.47-1.31-.69-2.49-.69-1.04,0-1.92,.29-2.61,.87-.71,.61-1.23,1.35-1.56,2.25-.32,.91-.47,1.88-.44,2.94,.03,1.04,.27,2.04,.72,2.94,.44,.91,1.11,1.65,2,2.24,.87,.59,2,.89,3.38,.89l3.75-.05v.02s0-.02,.02-.02l1.9-.02c2.02-.03,4.04-.44,5.87-1.33,.54-.25,1.08-.56,1.58-.87,2.2-1.4,3.97-3.3,5.25-5.75,.4-1.38,.62-3.18,.62-5.42v-4.54c0-1.19-.32-2.22-.94-3.06-.61-.84-1.46-1.26-2.57-1.26s-2.02,.5-2.78,1.51c-.76,1.03-1.13,2.61-1.13,4.78v3.18c.07,2.41,.54,4.24,.87,5.65,.22,.96,.76,2.12,1.63,2.29l-.17,.98c-1.23-.07-2.02-.12-3.25-.15-.66-.02-1.33-.03-2-.03l.07-.05s1.63-2.76,.07-5.92c-1.26-2.57-3.53-3.85-6.34-4.41v-1.85c0-2.78-.3-4.86-.91-6.23-.61-1.38-1.28-2.14-2.04-2.27l.15-1.08c1.11,0,2.09-.03,2.94-.1,.86-.08,1.68-.19,2.47-.32,.79-.13,1.6-.3,2.44-.5,.84-.22,1.8-.44,2.86-.67l1.19,.15v6.85c.3-1.3,.76-2.42,1.36-3.35,.61-.93,1.28-1.68,2.05-2.29,.77-.61,1.62-1.04,2.52-1.35,.91-.29,1.82-.44,2.71-.44,.99,0,1.97,.17,2.91,.52,.94,.34,1.78,.82,2.52,1.46s1.33,1.41,1.78,2.32c.44,.91,.67,1.95,.67,3.11v7.89c.07,2.36,.35,4.21,.87,5.5,.5,1.31,1.19,2.05,2.05,2.22l-.15,.98c-1.25-.07-2.47-.12-3.68-.15-1.23-.03-2.44-.05-3.68-.05s-2.42,.02-3.65,.05h-.17Z"/>
  <path class="cls-1" d="M138.42,56.94c-.54-1.36-.84-3.25-.91-5.65v-14.52l-1.13-.15c-1.06,.24-2.02,.45-2.88,.67-.86,.2-1.7,.37-2.47,.5-.79,.13-1.62,.24-2.47,.32-.86,.07-1.85,.1-2.94,.1l-.15,1.08c.76,.13,1.43,.89,2.04,2.27,.61,1.36,.89,3.45,.89,6.23v2.94c0,2.57-.25,4.58-.79,6.02-.54,1.45-1.25,2.27-2.14,2.47l.15,.98c1.25-.07,2.47-.12,3.68-.15,1.21-.03,2.46-.05,3.68-.05s2.42,.02,3.65,.05c1.25,.03,2.47,.08,3.72,.15l.15-.98c-.86-.17-1.55-.94-2.09-2.29Zm-.86-28.84c-.27-.64-.66-1.21-1.14-1.72-.5-.5-1.08-.89-1.73-1.16-.66-.27-1.36-.4-2.12-.4s-1.45,.13-2.1,.4c-.66,.27-1.21,.66-1.7,1.16-.49,.5-.86,1.08-1.13,1.72-.29,.66-.42,1.36-.42,2.12s.13,1.46,.42,2.12c.27,.64,.64,1.21,1.13,1.7,.49,.47,1.04,.86,1.7,1.16,.66,.29,1.35,.44,2.1,.44s1.46-.15,2.12-.44c.66-.3,1.23-.69,1.73-1.16,.49-.49,.87-1.06,1.14-1.7,.29-.66,.42-1.36,.42-2.12s-.13-1.46-.42-2.12Z"/>
  <path class="cls-1" d="M171.51,57c-.52-1.3-.81-3.15-.87-5.5v-7.89c0-1.16-.22-2.2-.67-3.11-.44-.91-1.03-1.68-1.77-2.32s-1.58-1.13-2.52-1.46c-.96-.35-1.92-.52-2.91-.52-.89,0-1.8,.15-2.71,.44-.91,.3-1.75,.74-2.52,1.35-.77,.61-1.46,1.36-2.07,2.29-.59,.93-1.04,2.05-1.36,3.35v-6.85l-1.18-.15c-1.06,.24-2.02,.45-2.86,.67-.84,.2-1.67,.37-2.46,.5-.77,.13-1.62,.24-2.47,.32-.86,.07-1.83,.1-2.93,.1l-.15,1.08c.76,.13,1.43,.89,2.04,2.27,.59,1.36,.89,3.45,.89,6.23v2.94c0,2.57-.27,4.58-.79,6.02-.54,1.45-1.25,2.27-2.14,2.47l.1,.98c1.26-.07,2.51-.12,3.74-.15,1.21-.03,2.42-.05,3.63-.05s2.46,.02,3.68,.05c1.21,.03,2.44,.08,3.68,.15l.15-.98c-.86-.17-1.55-.94-2.07-2.29-.5-1.36-.81-3.25-.87-5.65v-3.18c0-2.17,.39-3.75,1.14-4.78,.74-1.01,1.68-1.51,2.78-1.51s1.95,.42,2.57,1.26,.93,1.87,.93,3.06v4.54c0,2.61-.27,4.63-.82,6.07-.54,1.45-1.26,2.27-2.15,2.47l.15,.98c1.23-.07,2.47-.12,3.7-.15,1.25-.03,2.46-.05,3.67-.05s2.46,.02,3.67,.05c1.23,.03,2.46,.08,3.68,.15l.17-.98c-.86-.17-1.55-.91-2.07-2.22Z"/>
  <path class="cls-1" d="M198.4,36.34c-.79,.25-1.46,.4-2.05,.5-.59,.08-1.14,.12-1.7,.12s-1.11-.03-1.68-.1c-.56-.07-1.18-.15-1.87-.25s-1.48-.2-2.37-.27c-.89-.07-1.97-.1-3.2-.1-2.05,0-3.87,.34-5.43,.98-1.56,.66-2.86,1.55-3.92,2.66-1.04,1.13-1.82,2.42-2.34,3.89-.52,1.48-.77,3.03-.77,4.64,0,3.74,.74,6.71,2.22,8.92,1.46,2.19,3.67,3.3,6.6,3.3,2.02,0,3.75-.56,5.17-1.65,1.43-1.11,2.44-2.84,3.01-5.22v3.67c0,1.65-.24,3.03-.74,4.17-.5,1.13-1.13,2.05-1.88,2.78s-1.6,1.25-2.52,1.55c-.93,.3-1.85,.45-2.78,.45-2.04,0-3.6-.37-4.74-1.13l-.77,.93c.35,.42,.86,.84,1.55,1.3,.69,.44,1.5,.84,2.42,1.18,.93,.35,1.95,.62,3.06,.86,1.13,.22,2.27,.34,3.48,.34,1.09,0,2.34-.13,3.74-.39,1.4-.27,2.71-.81,3.94-1.65,1.25-.84,2.27-2.05,3.11-3.62s1.26-3.65,1.26-6.26v-21.12l-.77-.47Zm-8.35,12.89c-.1,1.85-.45,3.28-1.08,4.27-.62,.99-1.43,1.5-2.42,1.5-.61,0-1.14-.2-1.6-.62-.44-.4-.82-.98-1.13-1.7-.3-.72-.54-1.56-.69-2.52-.17-.96-.24-1.97-.24-3.05,0-1.19,.07-2.37,.24-3.52,.15-1.16,.4-2.19,.74-3.08,.34-.89,.77-1.62,1.31-2.19,.54-.56,1.18-.84,1.93-.84,1.19,0,1.99,.45,2.34,1.38,.37,.94,.56,2.09,.59,3.47v6.9Z"/>
  <path class="cls-1" d="M78.8,86.95c-.1-.2-.19-.3-.25-.3-.45,.12-.84,.17-1.16,.17-1.41,0-2.12-.96-2.12-2.88,0-2.04,.02-4.09,.05-6.14,.05-2.05,.03-4.07-.05-6.07-.07-1.78-.52-3.2-1.36-4.24-.82-1.06-1.85-1.87-3.08-2.42-1.21-.56-2.57-.91-4.04-1.08-1.48-.17-2.93-.25-4.34-.25-2.22,0-4.05,.3-5.52,.91-1.46,.62-2.59,1.38-3.38,2.29-.79,.89-1.28,1.87-1.45,2.91-.17,1.03-.07,1.99,.3,2.88,.37,.89,.99,1.63,1.87,2.22,.86,.59,1.95,.89,3.25,.89,.96,0,1.83-.22,2.62-.67,.81-.44,1.45-1.01,1.95-1.72,.49-.71,.81-1.46,.94-2.31,.13-.82,0-1.65-.37-2.47-.22,.08-.42,.12-.61,.12h-.56c-.81,0-1.43-.2-1.83-.61s-.62-.84-.64-1.31c-.02-.45,.15-.89,.5-1.3,.35-.42,.89-.62,1.63-.62,.67,0,1.28,.15,1.82,.45,.52,.29,.98,.67,1.33,1.16,.35,.49,.62,1.03,.82,1.62s.3,1.19,.3,1.83v5.05c-1.7,.29-3.47,.59-5.32,.91-1.85,.32-3.55,.79-5.11,1.41-1.67,.71-2.89,1.63-3.72,2.76-.81,1.13-1.21,2.36-1.21,3.68,0,.81,.17,1.6,.49,2.32,.34,.74,.82,1.41,1.48,2,.64,.59,1.43,1.06,2.39,1.41,.94,.35,2.02,.54,3.25,.54,2.32,0,4.07-.44,5.23-1.31,1.18-.87,2.02-2.04,2.52-3.52,0,.77,.2,1.46,.59,2.05,.39,.59,.87,1.09,1.46,1.5,.61,.4,1.26,.71,1.97,.91,.72,.2,1.43,.32,2.09,.37,.77,.03,1.56-.02,2.34-.17,.77-.15,1.5-.35,2.19-.62,.69-.25,1.28-.56,1.8-.91,.52-.35,.89-.72,1.11-1.14-.03,0-.1-.1-.19-.3Zm-13.36-4.24c-.07,1.14-.37,2.05-.87,2.73-.52,.66-1.21,.99-2.07,.99-.93,0-1.56-.4-1.93-1.19-.37-.79-.56-1.67-.56-2.64,0-1.21,.2-2.22,.61-2.99,.42-.77,.91-1.4,1.48-1.85,.57-.47,1.18-.81,1.8-1.03s1.14-.39,1.55-.5v6.49Z"/>
  <path class="cls-1" d="M97.18,51.3c-.2-.1-.39-.19-.56-.25,.08,.02,.17,.05,.25,.1,.02,0,.03,0,.05,.02,.08,.05,.17,.08,.25,.13Z"/>
  <path class="cls-1" d="M96.64,64.07s-.02,.02-.02,.02v-.02h.02Z"/>
  <path class="cls-1" d="M100.69,59.06c-.05,.17-.12,.34-.2,.5-.07,.15-.13,.3-.24,.44-.1,.2-.22,.39-.35,.57,.12-.19,.24-.37,.34-.57,.17-.3,.32-.62,.45-.94Z"/>
  <path class="cls-1" d="M100.93,55.69c-.08-.3-.2-.61-.32-.87-.03-.07-.07-.15-.1-.22-.12-.24-.24-.45-.37-.66-.19-.3-.39-.57-.61-.81-.17-.2-.35-.39-.54-.56-.17-.17-.37-.34-.56-.47-.05-.05-.12-.08-.17-.13-.17-.12-.34-.24-.5-.34-.19-.12-.37-.22-.56-.32t-.03-.02c-.2-.1-.39-.19-.56-.25,.08,.02,.17,.05,.25,.1,.02,0,.03,0,.05,.02,.08,.02,.15,.05,.22,.08,1.25,.62,2.2,1.4,2.86,2.32,.45,.67,.77,1.38,.93,2.12Z"/>
  <path class="cls-1" d="M141.26,82.75c-1.04,.3-2.07,.47-3.11,.47-1.92,0-3.67-.56-5.23-1.65-1.58-1.09-2.74-2.69-3.48-4.8h16.37c0-1.73-.3-3.4-.91-4.96-.61-1.58-1.46-2.96-2.57-4.17-1.11-1.19-2.46-2.15-4.04-2.84-1.56-.71-3.31-1.06-5.23-1.06-2.25,0-4.22,.39-5.91,1.16-1.7,.77-3.1,1.8-4.21,3.08-1.11,1.28-1.93,2.73-2.49,4.36-.56,1.63-.82,3.28-.82,4.95,0,2.07,.39,3.9,1.16,5.49,.77,1.6,1.78,2.94,3.03,4.02,1.23,1.09,2.66,1.92,4.27,2.47,1.6,.56,3.25,.84,4.91,.84,1.25,0,2.49-.17,3.7-.5,1.23-.34,2.37-.84,3.45-1.5,1.08-.67,2.04-1.51,2.89-2.56,.84-1.03,1.53-2.25,2.05-3.67l-.79-.61c-.99,.67-2,1.16-3.05,1.48Zm-12.48-10.47c0-2.52,.4-4.37,1.21-5.59,.82-1.19,1.72-1.8,2.68-1.8,.44,0,.91,.17,1.38,.5,.49,.34,.93,.81,1.31,1.41s.71,1.33,.96,2.17c.27,.82,.39,1.73,.39,2.74,0,.56-.02,1.06-.07,1.53-.07,.45-.2,.84-.4,1.16s-.5,.56-.91,.74c-.4,.19-.94,.29-1.62,.29h-4.66c-.19-1.04-.27-2.09-.27-3.16Z"/>
  <path class="cls-1" d="M173.57,67.84c-.4-.89-.94-1.63-1.62-2.22-.67-.59-1.45-1.04-2.32-1.36-.89-.3-1.82-.47-2.78-.47-1.63,0-3.25,.49-4.86,1.48-1.62,.98-2.84,2.52-3.68,4.63v-5.55l-1.28-.17c-1.14,.27-2.19,.5-3.11,.72-.93,.22-1.82,.4-2.66,.56-.86,.15-1.75,.25-2.68,.34-.93,.07-1.97,.12-3.16,.12l-.17,1.16c.82,.15,1.55,.96,2.2,2.44,.64,1.48,.96,3.72,.96,6.71v3.16c0,2.78-.29,4.95-.86,6.49-.57,1.55-1.33,2.44-2.31,2.66l.17,1.06c1.35-.07,2.68-.13,4-.17,1.33-.03,2.64-.05,3.94-.05s2.66,.02,3.97,.05c1.31,.03,2.64,.1,3.97,.17l.17-1.06c-.93-.19-1.68-1.01-2.25-2.47-.57-1.45-.87-3.48-.91-6.07v-4.32c0-1.3,.1-2.41,.32-3.33,.24-.93,.52-1.7,.89-2.31,.37-.61,.77-1.04,1.19-1.33,.42-.27,.86-.42,1.31-.42,.59,0,1.09,.25,1.51,.76,.44,.5,.67,1.23,.76,2.19,.07,.89-.17,1.67-.72,2.34,.37,1.06,1.01,1.88,1.92,2.44,.91,.56,1.88,.82,2.96,.82,.71,0,1.4-.12,2.09-.39,.69-.25,1.3-.64,1.83-1.13,.54-.5,.96-1.13,1.3-1.87s.5-1.62,.5-2.61c0-1.11-.2-2.1-.61-2.99Z"/>
  <g>
    <path class="cls-1" d="M54.21,30.1c-.29,.2-.67,.39-1.14,.57-.47,.17-.96,.25-1.45,.25-.72,0-1.4-.29-1.99-.86-.59-.59-.89-1.67-.89-3.26V14.74h4.73v-1.08h-4.73V7.4l-.99-.08c-1.01,1.93-2.39,3.47-4.14,4.56-1.75,1.09-3.75,1.78-6.01,2.04v.82h3.47v13.46c0,1.38,.25,2.47,.77,3.25,.52,.79,1.16,1.36,1.88,1.77,.74,.39,1.53,.62,2.37,.71s1.58,.13,2.22,.13c1.38,0,2.61-.27,3.68-.81,1.06-.54,1.97-1.41,2.69-2.66l-.49-.49Z"/>
    <path class="cls-1" d="M79.95,30.89c-.44-1.11-.69-2.66-.74-4.64v-6.65c0-.98-.19-1.85-.57-2.62-.37-.76-.87-1.41-1.5-1.95-.62-.54-1.33-.94-2.12-1.23-.79-.3-1.62-.44-2.46-.44-.74,0-1.51,.12-2.27,.37-.77,.24-1.48,.62-2.12,1.13-.66,.5-1.25,1.14-1.75,1.92-.5,.79-.89,1.73-1.14,2.83V5.33l-.57-.13c-.89,.2-1.72,.39-2.49,.56-.76,.19-1.51,.32-2.24,.44-.72,.12-1.45,.2-2.2,.27-.76,.05-1.6,.08-2.52,.08l-.13,.91c.64,.08,1.21,.71,1.72,1.88,.5,1.18,.76,2.93,.76,5.28v10.92c0,2.2-.22,3.92-.66,5.13-.45,1.21-1.06,1.9-1.82,2.09l.1,.82c1.06-.07,2.12-.1,3.15-.13,1.03-.03,2.04-.05,3.05-.05s2.09,.02,3.11,.05c1.03,.03,2.05,.07,3.1,.13l.13-.82c-.72-.15-1.3-.79-1.73-1.93-.44-1.14-.69-2.73-.74-4.76v-2.68c0-1.83,.32-3.16,.96-4.02s1.41-1.28,2.34-1.28,1.65,.35,2.17,1.06c.52,.71,.77,1.56,.77,2.59v3.8c0,2.2-.22,3.92-.69,5.13-.45,1.21-1.06,1.9-1.82,2.09l.13,.82c1.03-.07,2.07-.1,3.11-.13,1.04-.03,2.07-.05,3.08-.05s2.09,.02,3.11,.05c1.03,.03,2.05,.07,3.1,.13l.13-.82c-.72-.15-1.3-.77-1.73-1.87Z"/>
    <path class="cls-1" d="M98.22,28.22c-.82,.25-1.63,.37-2.44,.37-1.5,0-2.86-.42-4.11-1.28-1.23-.86-2.12-2.1-2.71-3.75h12.8c0-1.36-.24-2.66-.72-3.89-.47-1.23-1.14-2.32-2-3.25-.87-.94-1.92-1.7-3.15-2.24-1.25-.56-2.61-.82-4.11-.82-1.77,0-3.31,.3-4.63,.91-1.31,.61-2.41,1.41-3.28,2.41-.86,.99-1.51,2.14-1.95,3.42-.42,1.26-.64,2.56-.64,3.85,0,1.62,.3,3.05,.91,4.29,.61,1.25,1.4,2.31,2.36,3.15,.98,.86,2.09,1.5,3.35,1.93,1.26,.44,2.54,.66,3.84,.66,.99,0,1.95-.13,2.91-.39,.96-.27,1.85-.66,2.69-1.18s1.6-1.19,2.25-2c.67-.81,1.19-1.77,1.62-2.86l-.62-.47c-.77,.52-1.56,.89-2.37,1.14Zm-9.78-8.18c0-1.97,.32-3.42,.96-4.36s1.33-1.41,2.09-1.41c.34,0,.71,.13,1.08,.39,.39,.27,.72,.64,1.03,1.11,.3,.47,.56,1.04,.76,1.68,.2,.66,.3,1.38,.3,2.15,0,.44-.02,.84-.07,1.19-.03,.37-.13,.67-.3,.91-.15,.25-.39,.44-.71,.59-.32,.15-.74,.22-1.26,.22h-3.65c-.13-.81-.22-1.63-.22-2.47Z"/>
  </g>
  <path class="cls-2" d="M96.64,64.07s-.02,.02-.02,.02v-.02h.02Z"/>
  <path class="cls-2" d="M100.93,55.69c-.08-.3-.2-.61-.32-.87-.03-.07-.07-.15-.1-.22-.12-.24-.24-.45-.37-.66-.19-.3-.39-.57-.61-.81-.17-.2-.35-.39-.54-.56-.17-.17-.37-.34-.56-.47-.05-.05-.12-.08-.17-.13-.17-.12-.34-.24-.5-.34-.19-.12-.37-.22-.56-.32t-.03-.02c-.2-.1-.39-.19-.56-.25,.08,.02,.17,.05,.25,.1,.02,0,.03,0,.05,.02,.08,.02,.15,.05,.22,.08,1.25,.62,2.2,1.4,2.86,2.32,.45,.67,.77,1.38,.93,2.12Z"/>
  <path class="cls-2" d="M100.69,59.06c-.05,.17-.12,.34-.2,.5-.07,.15-.13,.3-.24,.44-.1,.2-.22,.39-.35,.57,.12-.19,.24-.37,.34-.57,.17-.3,.32-.62,.45-.94Z"/>
</svg>